<?xml version="1.0" encoding="UTF-8" standalone="no"?>
<svg
   xmlns:dc="http://purl.org/dc/elements/1.1/"
   xmlns:cc="http://creativecommons.org/ns#"
   xmlns:rdf="http://www.w3.org/1999/02/22-rdf-syntax-ns#"
   xmlns:svg="http://www.w3.org/2000/svg"
   xmlns="http://www.w3.org/2000/svg"
   xmlns:sodipodi="http://sodipodi.sourceforge.net/DTD/sodipodi-0.dtd"
   xmlns:inkscape="http://www.inkscape.org/namespaces/inkscape"
   height="349.31589pt"
   version="1.1"
   viewBox="0 -81 512.00063 349.31589"
   width="512.00037pt"
   id="svg11"
   sodipodi:docname="airplane.svg"
   inkscape:version="1.0.1 (3bc2e813f5, 2020-09-07)">
  <metadata
     id="metadata17">
    <rdf:RDF>
      <cc:Work
         rdf:about="">
        <dc:format>image/svg+xml</dc:format>
        <dc:type
           rdf:resource="http://purl.org/dc/dcmitype/StillImage" />
      </cc:Work>
    </rdf:RDF>
  </metadata>
  <defs
     id="defs15" />
  <sodipodi:namedview
     pagecolor="#ffffff"
     bordercolor="#666666"
     borderopacity="1"
     objecttolerance="10"
     gridtolerance="10"
     guidetolerance="10"
     inkscape:pageopacity="0"
     inkscape:pageshadow="2"
     inkscape:window-width="1366"
     inkscape:window-height="710"
     id="namedview13"
     showgrid="false"
     inkscape:zoom="0.66650391"
     inkscape:cx="341.33333"
     inkscape:cy="233.33279"
     inkscape:window-x="0"
     inkscape:window-y="0"
     inkscape:window-maximized="1"
     inkscape:current-layer="svg11"
     inkscape:document-rotation="0" />
  <g
     id="surface1"
     transform="translate(0,-81.000427)"
     style="fill:#f9f9f9">
    <path
       d="m 508.73047,163.91016 c -0.55078,-0.76954 -13.78125,-18.97657 -37.1836,-23.76954 -21.21484,-4.34375 -69.59375,-4.58984 -71.64062,-4.59765 -3.32813,-0.0117 -6.39844,-0.25781 -7.85156,-0.44531 -1.40235,-1.14454 -4.25,-3.94141 -6.12891,-6.26172 L 290.99609,11.570312 c -2.05078,-2.535156 -6.23047,-7.3125 -8.88672,-9.140624 -4.54687,-3.140626 -16.20312,-2.3750005 -17.51562,-2.277344 l -2.58203,0.191406 c -3.51953,0.261719 -9.87891,0.964844 -12.91016,2.742188 -1.79687,1.050781 -7.25781,4.253906 -2.21875,19.800781 0,0 36.17969,111.597651 36.32422,112.089841 -0.53906,0.0312 -52.04297,0.0508 -52.04297,0.0508 -3.40234,0 -6.53515,-0.23828 -7.98828,-0.41797 -1.42969,-1.09375 -4.40625,-3.86328 -6.35156,-6.15234 L 183.34375,89.066406 c -0.23828,-0.277344 -5.8125,-6.808594 -9.33594,-8.953125 -4.71875,-2.867187 -13.78515,-1.402343 -13.875,-1.386719 -2.58594,0.484376 -6.22656,1.714844 -8.53125,3.371094 -4.15625,2.992188 -4.86328,9.546875 -2.09375,19.480474 7.51953,26.95703 18.2461,66.91796 19.03906,73.03515 -0.79296,6.11719 -11.52343,46.07813 -19.03906,73.03516 -0.58594,2.10547 -2.46094,9.27343 -1.88281,12.99609 1.1875,7.65234 12.04687,9.76953 12.50781,9.85547 2.70703,0.50781 6.39063,0.66797 8.75391,0.38672 5.66015,-0.6836 13.03515,-9.0586 14.45703,-10.72656 l 33.48047,-39.39454 c 2.17969,-2.55859 4.38281,-4.77343 5.4414,-5.73828 1.76563,-0.36718 5.83594,-0.82812 8.89844,-0.82812 0,0 51.51563,0.008 52.02344,0.0234 -0.13672,0.52343 -36.30078,112.11718 -36.30078,112.11718 -1.08594,3.35157 -2.83985,9.49219 -2.35938,12.95313 0.77344,5.5625 6.65625,8.78515 17.48828,9.58984 l 2.57813,0.19141 c 1.64062,0.12109 4.0625,0.24219 6.46484,0.24219 2.3711,0 4.71875,-0.11719 6.28516,-0.45313 5.39844,-1.16406 12.82812,-10.18359 13.65625,-11.20703 l 94.92969,-117.26563 c 2.09375,-2.58593 4.21093,-4.83203 5.26172,-5.84765 1.76562,-0.37891 5.73046,-0.84766 8.71484,-0.85938 2.04687,-0.008 50.42969,-0.2539 71.64453,-4.59765 23.40234,-4.79688 36.63281,-23 37.18359,-23.77344 4.35547,-6.10156 4.35547,-15.30078 -0.004,-21.40234 z m 0,0"
       style="fill:#f9f9f9;fill-opacity:1;fill-rule:nonzero;stroke:none"
       id="path2" />
    <path
       d="M 102.07422,100.67578 H 62.296875 c -8.472656,0 -15.339844,6.94531 -15.339844,15.51563 0,8.5664 6.867188,15.51562 15.339844,15.51562 h 39.777345 c 8.47266,0 15.34375,-6.94922 15.34375,-15.51562 0,-8.57032 -6.87109,-15.51563 -15.34375,-15.51563 z m 0,0"
       style="fill:#f9f9f9;fill-opacity:1;fill-rule:nonzero;stroke:none"
       id="path4" />
    <path
       d="M 102.07422,221.60937 H 62.296875 c -8.472656,0 -15.339844,6.94532 -15.339844,15.51172 0,8.57032 6.867188,15.51563 15.339844,15.51563 h 39.777345 c 8.47266,0 15.34375,-6.94531 15.34375,-15.51563 0,-8.5664 -6.87109,-15.51172 -15.34375,-15.51172 z m 0,0"
       style="fill:#f9f9f9;fill-opacity:1;fill-rule:nonzero;stroke:none"
       id="path6" />
    <path
       d="M 102.07422,161.14062 H 15.34375 C 6.871094,161.14062 0,168.08984 0,176.65625 c 0,8.57031 6.871094,15.51562 15.34375,15.51562 h 86.73047 c 8.47266,0 15.34375,-6.94531 15.34375,-15.51562 0,-8.56641 -6.87109,-15.51563 -15.34375,-15.51563 z m 0,0"
       style="fill:#f9f9f9;fill-opacity:1;fill-rule:nonzero;stroke:none"
       id="path8" />
  </g>
</svg>
