<?xml version="1.0" encoding="UTF-8" standalone="no"?>
<svg
   xmlns:dc="http://purl.org/dc/elements/1.1/"
   xmlns:cc="http://creativecommons.org/ns#"
   xmlns:rdf="http://www.w3.org/1999/02/22-rdf-syntax-ns#"
   xmlns:svg="http://www.w3.org/2000/svg"
   xmlns="http://www.w3.org/2000/svg"
   xmlns:sodipodi="http://sodipodi.sourceforge.net/DTD/sodipodi-0.dtd"
   xmlns:inkscape="http://www.inkscape.org/namespaces/inkscape"
   version="1.1"
   id="Capa_1"
   x="0px"
   y="0px"
   viewBox="0 0 512 512"
   style="enable-background:new 0 0 512 512;"
   xml:space="preserve"
   sodipodi:docname="friends.svg"
   inkscape:version="1.0.1 (0767f8302a, 2020-10-17)"><metadata
   id="metadata61"><rdf:RDF><cc:Work
       rdf:about=""><dc:format>image/svg+xml</dc:format><dc:type
         rdf:resource="http://purl.org/dc/dcmitype/StillImage" /></cc:Work></rdf:RDF></metadata><defs
   id="defs59" /><sodipodi:namedview
   pagecolor="#ffffff"
   bordercolor="#666666"
   borderopacity="1"
   objecttolerance="10"
   gridtolerance="10"
   guidetolerance="10"
   inkscape:pageopacity="0"
   inkscape:pageshadow="2"
   inkscape:window-width="755"
   inkscape:window-height="484"
   id="namedview57"
   showgrid="false"
   inkscape:zoom="0.88867188"
   inkscape:cx="256"
   inkscape:cy="256"
   inkscape:window-x="0"
   inkscape:window-y="0"
   inkscape:window-maximized="0"
   inkscape:current-layer="Capa_1" />
<g
   id="g6"
   style="fill:#1a1a1a">
	<g
   id="g4"
   style="fill:#1a1a1a">
		<path
   d="M155.327,57.142c-51.531,0-93.454,44.45-93.454,99.086c0,54.636,41.923,99.086,93.454,99.086s93.455-44.45,93.455-99.086    C248.782,101.592,206.859,57.142,155.327,57.142z"
   id="path2"
   style="fill:#1a1a1a" />
	</g>
</g>
<g
   id="g12"
   style="fill:#1a1a1a">
	<g
   id="g10"
   style="fill:#1a1a1a">
		<path
   d="M367.798,71.321c-0.211,0-0.425,0.001-0.636,0.002c-21.626,0.179-41.826,9.31-56.878,25.713    c-14.788,16.113-22.829,37.37-22.644,59.854c0.186,22.484,8.577,43.605,23.628,59.473c15.17,15.991,35.265,24.773,56.651,24.773    c0.215,0,0.43-0.001,0.646-0.002c21.626-0.179,41.826-9.311,56.878-25.713c14.788-16.113,22.829-37.37,22.644-59.855    C447.702,108.972,411.747,71.321,367.798,71.321z"
   id="path8"
   style="fill:#1a1a1a" />
	</g>
</g>
<g
   id="g18"
   style="fill:#1a1a1a">
	<g
   id="g16"
   style="fill:#1a1a1a">
		<path
   d="M371.74,257.358h-7.76c-36.14,0-69.12,13.74-94.02,36.26c6.23,4.78,12.16,9.99,17.78,15.61    c16.58,16.58,29.6,35.9,38.7,57.42c8.2,19.38,12.88,39.8,13.97,60.83H512v-29.87C512,320.278,449.08,257.358,371.74,257.358z"
   id="path14"
   style="fill:#1a1a1a" />
	</g>
</g>
<g
   id="g24"
   style="fill:#1a1a1a">
	<g
   id="g22"
   style="fill:#1a1a1a">
		<path
   d="M310.35,427.478c-2.83-45.59-25.94-85.69-60.43-111.39c-25.09-18.7-56.21-29.77-89.92-29.77h-9.34    C67.45,286.319,0,353.768,0,436.978v17.88h310.65v-17.88C310.65,433.788,310.55,430.618,310.35,427.478z"
   id="path20"
   style="fill:#1a1a1a" />
	</g>
</g>
<g
   id="g26"
   style="fill:#1a1a1a">
</g>
<g
   id="g28"
   style="fill:#1a1a1a">
</g>
<g
   id="g30"
   style="fill:#1a1a1a">
</g>
<g
   id="g32"
   style="fill:#1a1a1a">
</g>
<g
   id="g34"
   style="fill:#1a1a1a">
</g>
<g
   id="g36"
   style="fill:#1a1a1a">
</g>
<g
   id="g38"
   style="fill:#1a1a1a">
</g>
<g
   id="g40"
   style="fill:#1a1a1a">
</g>
<g
   id="g42"
   style="fill:#1a1a1a">
</g>
<g
   id="g44"
   style="fill:#1a1a1a">
</g>
<g
   id="g46"
   style="fill:#1a1a1a">
</g>
<g
   id="g48"
   style="fill:#1a1a1a">
</g>
<g
   id="g50"
   style="fill:#1a1a1a">
</g>
<g
   id="g52"
   style="fill:#1a1a1a">
</g>
<g
   id="g54"
   style="fill:#1a1a1a">
</g>
</svg>
