<?xml version="1.0" encoding="UTF-8" standalone="no"?>
<svg
   xmlns:dc="http://purl.org/dc/elements/1.1/"
   xmlns:cc="http://creativecommons.org/ns#"
   xmlns:rdf="http://www.w3.org/1999/02/22-rdf-syntax-ns#"
   xmlns:svg="http://www.w3.org/2000/svg"
   xmlns="http://www.w3.org/2000/svg"
   xmlns:sodipodi="http://sodipodi.sourceforge.net/DTD/sodipodi-0.dtd"
   xmlns:inkscape="http://www.inkscape.org/namespaces/inkscape"
   width="314.01492"
   height="144.06081"
   viewBox="0 0 83.083118 38.116087"
   version="1.1"
   id="svg251"
   inkscape:version="1.0.1 (3bc2e813f5, 2020-09-07)"
   sodipodi:docname="surf_logo.svg">
  <defs
     id="defs245" />
  <sodipodi:namedview
     id="base"
     pagecolor="#ffffff"
     bordercolor="#666666"
     borderopacity="1.0"
     inkscape:pageopacity="0.0"
     inkscape:pageshadow="2"
     inkscape:zoom="0.98994949"
     inkscape:cx="237.85309"
     inkscape:cy="84.615898"
     inkscape:document-units="px"
     inkscape:current-layer="layer1"
     inkscape:document-rotation="0"
     showgrid="false"
     inkscape:window-width="1366"
     inkscape:window-height="710"
     inkscape:window-x="0"
     inkscape:window-y="0"
     inkscape:window-maximized="1"
     units="px"
     fit-margin-top="0"
     fit-margin-left="0"
     fit-margin-right="0"
     fit-margin-bottom="0" />
  <metadata
     id="metadata248">
    <rdf:RDF>
      <cc:Work
         rdf:about="">
        <dc:format>image/svg+xml</dc:format>
        <dc:type
           rdf:resource="http://purl.org/dc/dcmitype/StillImage" />
        <dc:title />
      </cc:Work>
    </rdf:RDF>
  </metadata>
  <g
     inkscape:label="Layer 1"
     inkscape:groupmode="layer"
     id="layer1"
     transform="translate(585.75662,37.898624)">
    <path
       id="path219"
       style="fill:#000000;stroke-width:0.020278"
       d="m -572.59459,0.21746608 c 0,0 -15.20445,-17.71371008 -12.93015,-27.62236208 1.24177,-5.410169 7.37929,-10.496517 12.93013,-10.493727 5.55538,0.0028 11.6909,5.099893 12.93015,10.51529 2.26635,9.903784 -12.93013,27.60079908 -12.93013,27.60079908 z"
       sodipodi:nodetypes="caaac" />
    <g
       id="g292"
       transform="matrix(0.07500185,0,0,0.07500185,116.6049,8.5204249)">
      <path
         id="path221"
         style="fill:#ffffff;stroke-width:0.260932"
         d="m -9189.2013,-121.73807 c 0,0 -195.647,-227.93575 -166.382,-355.43788 15.9788,-69.61667 94.9549,-135.06654 166.3818,-135.03066 71.4853,0.036 150.4356,65.62421 166.382,135.30813 29.1629,127.43952 -166.3818,355.16041 -166.3818,355.16041 z"
         sodipodi:nodetypes="caaac" />
      <path
         id="path223"
         style="fill:#000000;fill-opacity:1;stroke-width:0.0452605"
         d="m -9211.5172,-521.37686 a 31.955959,31.955962 0 0 1 0.071,-0.0713 31.955959,31.955962 0 0 1 0.072,-0.0711 31.955959,31.955962 0 0 1 0.072,-0.0709 31.955959,31.955962 0 0 1 0.072,-0.0707 31.955959,31.955962 0 0 1 0.073,-0.0704 31.955959,31.955962 0 0 1 0.073,-0.0703 31.955959,31.955962 0 0 1 0.073,-0.07 31.955959,31.955962 0 0 1 0.073,-0.0697 31.955959,31.955962 0 0 1 0.074,-0.0696 31.955959,31.955962 0 0 1 0.074,-0.0693 31.955959,31.955962 0 0 1 0.074,-0.0691 31.955959,31.955962 0 0 1 0.074,-0.0688 31.955959,31.955962 0 0 1 0.075,-0.0686 31.955959,31.955962 0 0 1 0.074,-0.0683 31.955959,31.955962 0 0 1 0.074,-0.0682 31.955959,31.955962 0 0 1 0.075,-0.0678 31.955959,31.955962 0 0 1 0.075,-0.0677 31.955959,31.955962 0 0 1 0.075,-0.0674 31.955959,31.955962 0 0 1 0.075,-0.0671 31.955959,31.955962 0 0 1 0.076,-0.0669 31.955959,31.955962 0 0 1 0.076,-0.0667 31.955959,31.955962 0 0 1 0.076,-0.0664 31.955959,31.955962 0 0 1 0.076,-0.0661 31.955959,31.955962 0 0 1 0.077,-0.066 31.955959,31.955962 0 0 1 0.077,-0.0657 31.955959,31.955962 0 0 1 0.077,-0.0655 31.955959,31.955962 0 0 1 0.078,-0.0652 31.955959,31.955962 0 0 1 0.078,-0.0649 31.955959,31.955962 0 0 1 0.078,-0.0648 31.955959,31.955962 0 0 1 0.078,-0.0645 31.955959,31.955962 0 0 1 0.078,-0.0642 31.955959,31.955962 0 0 1 0.078,-0.064 31.955959,31.955962 0 0 1 0.079,-0.0638 31.955959,31.955962 0 0 1 0.079,-0.0635 31.955959,31.955962 0 0 1 0.079,-0.0633 31.955959,31.955962 0 0 1 0.079,-0.063 31.955959,31.955962 0 0 1 0.079,-0.0627 31.955959,31.955962 0 0 1 0.079,-0.0625 31.955959,31.955962 0 0 1 0.08,-0.0622 31.955959,31.955962 0 0 1 0.08,-0.062 31.955959,31.955962 0 0 1 0.08,-0.0617 31.955959,31.955962 0 0 1 0.08,-0.0614 31.955959,31.955962 0 0 1 0.08,-0.0612 31.955959,31.955962 0 0 1 0.081,-0.061 31.955959,31.955962 0 0 1 0.081,-0.0607 31.955959,31.955962 0 0 1 0.081,-0.0605 31.955959,31.955962 0 0 1 0.081,-0.0602 31.955959,31.955962 0 0 1 0.082,-0.0599 31.955959,31.955962 0 0 1 0.082,-0.0597 31.955959,31.955962 0 0 1 0.082,-0.0594 31.955959,31.955962 0 0 1 0.082,-0.0592 31.955959,31.955962 0 0 1 0.082,-0.0589 31.955959,31.955962 0 0 1 0.082,-0.0587 31.955959,31.955962 0 0 1 0.083,-0.0584 31.955959,31.955962 0 0 1 0.083,-0.0582 31.955959,31.955962 0 0 1 0.083,-0.0578 31.955959,31.955962 0 0 1 0.083,-0.0577 31.955959,31.955962 0 0 1 0.083,-0.0573 31.955959,31.955962 0 0 1 0.084,-0.057 31.955959,31.955962 0 0 1 0.084,-0.0569 31.955959,31.955962 0 0 1 0.084,-0.0565 31.955959,31.955962 0 0 1 0.084,-0.0562 31.955959,31.955962 0 0 1 0.084,-0.0561 31.955959,31.955962 0 0 1 0.084,-0.0558 31.955959,31.955962 0 0 1 0.084,-0.0555 31.955959,31.955962 0 0 1 0.085,-0.0552 31.955959,31.955962 0 0 1 0.085,-0.055 31.955959,31.955962 0 0 1 0.085,-0.0546 31.955959,31.955962 0 0 1 0.085,-0.0544 31.955959,31.955962 0 0 1 0.085,-0.0541 31.955959,31.955962 0 0 1 0.086,-0.0538 31.955959,31.955962 0 0 1 0.086,-0.0537 31.955959,31.955962 0 0 1 0.086,-0.0533 31.955959,31.955962 0 0 1 0.086,-0.053 31.955959,31.955962 0 0 1 0.086,-0.0528 31.955959,31.955962 0 0 1 0.087,-0.0525 31.955959,31.955962 0 0 1 0.086,-0.0522 31.955959,31.955962 0 0 1 0.087,-0.052 31.955959,31.955962 0 0 1 0.087,-0.0516 31.955959,31.955962 0 0 1 0.087,-0.0515 31.955959,31.955962 0 0 1 0.087,-0.0511 31.955959,31.955962 0 0 1 0.087,-0.0508 31.955959,31.955962 0 0 1 0.087,-0.0507 31.955959,31.955962 0 0 1 0.088,-0.0503 31.955959,31.955962 0 0 1 0.088,-0.05 31.955959,31.955962 0 0 1 0.088,-0.0498 31.955959,31.955962 0 0 1 0.088,-0.0495 31.955959,31.955962 0 0 1 0.088,-0.0492 31.955959,31.955962 0 0 1 0.089,-0.0489 31.955959,31.955962 0 0 1 0.089,-0.0486 31.955959,31.955962 0 0 1 0.089,-0.0483 31.955959,31.955962 0 0 1 0.089,-0.0481 31.955959,31.955962 0 0 1 0.089,-0.0478 31.955959,31.955962 0 0 1 0.089,-0.0475 31.955959,31.955962 0 0 1 0.09,-0.0472 31.955959,31.955962 0 0 1 0.09,-0.0469 31.955959,31.955962 0 0 1 0.09,-0.0467 31.955959,31.955962 0 0 1 0.09,-0.0463 31.955959,31.955962 0 0 1 0.09,-0.046 31.955959,31.955962 0 0 1 0.09,-0.0459 31.955959,31.955962 0 0 1 0.09,-0.0454 31.955959,31.955962 0 0 1 0.091,-0.0453 31.955959,31.955962 0 0 1 0.091,-0.0449 31.955959,31.955962 0 0 1 0.091,-0.0446 31.955959,31.955962 0 0 1 0.091,-0.0443 31.955959,31.955962 0 0 1 0.091,-0.0442 31.955959,31.955962 0 0 1 0.091,-0.0438 31.955959,31.955962 0 0 1 0.091,-0.0435 31.955959,31.955962 0 0 1 0.091,-0.0432 31.955959,31.955962 0 0 1 0.092,-0.0429 31.955959,31.955962 0 0 1 0.092,-0.0426 31.955959,31.955962 0 0 1 0.092,-0.0424 31.955959,31.955962 0 0 1 0.092,-0.042 31.955959,31.955962 0 0 1 0.092,-0.0418 31.955959,31.955962 0 0 1 0.092,-0.0414 31.955959,31.955962 0 0 1 0.092,-0.0412 31.955959,31.955962 0 0 1 0.093,-0.0409 31.955959,31.955962 0 0 1 0.093,-0.0406 31.955959,31.955962 0 0 1 0.093,-0.0403 31.955959,31.955962 0 0 1 0.093,-0.04 31.955959,31.955962 0 0 1 0.093,-0.0397 31.955959,31.955962 0 0 1 0.093,-0.0395 31.955959,31.955962 0 0 1 0.093,-0.0391 31.955959,31.955962 0 0 1 0.093,-0.0388 31.955959,31.955962 0 0 1 0.093,-0.0385 31.955959,31.955962 0 0 1 0.094,-0.0383 31.955959,31.955962 0 0 1 0.094,-0.0379 31.955959,31.955962 0 0 1 0.094,-0.0376 31.955959,31.955962 0 0 1 0.094,-0.0374 31.955959,31.955962 0 0 1 0.094,-0.0371 31.955959,31.955962 0 0 1 0.094,-0.0368 31.955959,31.955962 0 0 1 0.094,-0.0364 31.955959,31.955962 0 0 1 0.095,-0.0362 31.955959,31.955962 0 0 1 0.095,-0.0358 31.955959,31.955962 0 0 1 0.095,-0.0355 31.955959,31.955962 0 0 1 0.095,-0.0353 31.955959,31.955962 0 0 1 0.095,-0.0349 31.955959,31.955962 0 0 1 0.095,-0.0347 31.955959,31.955962 0 0 1 0.095,-0.0344 31.955959,31.955962 0 0 1 0.095,-0.034 31.955959,31.955962 0 0 1 0.095,-0.0337 31.955959,31.955962 0 0 1 0.096,-0.0334 31.955959,31.955962 0 0 1 0.096,-0.0331 31.955959,31.955962 0 0 1 0.096,-0.0328 31.955959,31.955962 0 0 1 0.096,-0.0326 31.955959,31.955962 0 0 1 0.096,-0.0322 31.955959,31.955962 0 0 1 0.096,-0.0319 31.955959,31.955962 0 0 1 0.096,-0.0316 31.955959,31.955962 0 0 1 0.096,-0.0313 31.955959,31.955962 0 0 1 0.096,-0.031 31.955959,31.955962 0 0 1 0.096,-0.0308 31.955959,31.955962 0 0 1 0.097,-0.0304 31.955959,31.955962 0 0 1 0.096,-0.03 31.955959,31.955962 0 0 1 0.097,-0.0297 31.955959,31.955962 0 0 1 0.097,-0.0296 31.955959,31.955962 0 0 1 0.097,-0.0292 31.955959,31.955962 0 0 1 0.097,-0.0289 31.955959,31.955962 0 0 1 0.097,-0.0285 31.955959,31.955962 0 0 1 0.097,-0.0282 31.955959,31.955962 0 0 1 0.097,-0.028 31.955959,31.955962 0 0 1 0.097,-0.0276 31.955959,31.955962 0 0 1 0.097,-0.0274 31.955959,31.955962 0 0 1 0.097,-0.027 31.955959,31.955962 0 0 1 0.098,-0.0268 31.955959,31.955962 0 0 1 0.098,-0.0264 31.955959,31.955962 0 0 1 0.098,-0.026 31.955959,31.955962 0 0 1 0.098,-0.0258 31.955959,31.955962 0 0 1 0.098,-0.0254 31.955959,31.955962 0 0 1 0.098,-0.0252 31.955959,31.955962 0 0 1 0.098,-0.0249 31.955959,31.955962 0 0 1 0.098,-0.0245 31.955959,31.955962 0 0 1 0.098,-0.0242 31.955959,31.955962 0 0 1 0.098,-0.0239 31.955959,31.955962 0 0 1 0.098,-0.0236 31.955959,31.955962 0 0 1 0.098,-0.0233 31.955959,31.955962 0 0 1 0.099,-0.023 31.955959,31.955962 0 0 1 0.099,-0.0227 31.955959,31.955962 0 0 1 0.099,-0.0224 31.955959,31.955962 0 0 1 0.099,-0.022 31.955959,31.955962 0 0 1 0.099,-0.0217 31.955959,31.955962 0 0 1 0.099,-0.0215 31.955959,31.955962 0 0 1 0.099,-0.0212 31.955959,31.955962 0 0 1 0.099,-0.0208 31.955959,31.955962 0 0 1 0.099,-0.0206 31.955959,31.955962 0 0 1 0.099,-0.0202 31.955959,31.955962 0 0 1 0.099,-0.0198 31.955959,31.955962 0 0 1 0.099,-0.0196 31.955959,31.955962 0 0 1 0.099,-0.0191 31.955959,31.955962 0 0 1 0.099,-0.0189 31.955959,31.955962 0 0 1 0.099,-0.0187 31.955959,31.955962 0 0 1 0.099,-0.0183 31.955959,31.955962 0 0 1 0.1,-0.018 31.955959,31.955962 0 0 1 0.1,-0.0176 31.955959,31.955962 0 0 1 0.1,-0.0174 31.955959,31.955962 0 0 1 0.1,-0.017 31.955959,31.955962 0 0 1 0.1,-0.0167 31.955959,31.955962 0 0 1 0.1,-0.0164 31.955959,31.955962 0 0 1 0.1,-0.0161 31.955959,31.955962 0 0 1 0.1,-0.0158 31.955959,31.955962 0 0 1 0.1,-0.0155 31.955959,31.955962 0 0 1 0.1,-0.0151 31.955959,31.955962 0 0 1 0.1001,-0.0148 31.955959,31.955962 0 0 1 0.1001,-0.0145 31.955959,31.955962 0 0 1 0.1001,-0.0143 31.955959,31.955962 0 0 1 0.1002,-0.0139 31.955959,31.955962 0 0 1 0.1002,-0.0135 31.955959,31.955962 0 0 1 0.1002,-0.0132 31.955959,31.955962 0 0 1 0.1003,-0.0129 31.955959,31.955962 0 0 1 0.1004,-0.0126 31.955959,31.955962 0 0 1 0.1004,-0.0122 31.955959,31.955962 0 0 1 0.1004,-0.0119 31.955959,31.955962 0 0 1 0.1004,-0.0117 31.955959,31.955962 0 0 1 0.1005,-0.0113 31.955959,31.955962 0 0 1 0.1005,-0.0111 31.955959,31.955962 0 0 1 0.1006,-0.0107 31.955959,31.955962 0 0 1 0.1007,-0.0104 31.955959,31.955962 0 0 1 0.1005,-0.0101 31.955959,31.955962 0 0 1 0.1007,-0.01 31.955959,31.955962 0 0 1 0.1007,-0.009 31.955959,31.955962 0 0 1 0.1007,-0.009 31.955959,31.955962 0 0 1 0.1007,-0.009 31.955959,31.955962 0 0 1 0.1008,-0.008 31.955959,31.955962 0 0 1 0.1008,-0.008 31.955959,31.955962 0 0 1 0.1009,-0.008 31.955959,31.955962 0 0 1 0.1009,-0.008 31.955959,31.955962 0 0 1 0.1008,-0.007 31.955959,31.955962 0 0 1 0.1009,-0.007 31.955959,31.955962 0 0 1 0.1009,-0.006 31.955959,31.955962 0 0 1 0.101,-0.006 31.955959,31.955962 0 0 1 0.1009,-0.006 31.955959,31.955962 0 0 1 0.101,-0.005 31.955959,31.955962 0 0 1 0.1009,-0.005 31.955959,31.955962 0 0 1 0.101,-0.005 31.955959,31.955962 0 0 1 0.1011,-0.005 31.955959,31.955962 0 0 1 0.1011,-0.005 31.955959,31.955962 0 0 1 0.101,-0.004 31.955959,31.955962 0 0 1 0.101,-0.003 31.955959,31.955962 0 0 1 0.101,-0.003 31.955959,31.955962 0 0 1 0.1012,-0.003 31.955959,31.955962 0 0 1 0.1011,-0.003 31.955959,31.955962 0 0 1 0.101,-0.002 31.955959,31.955962 0 0 1 0.1011,-0.002 31.955959,31.955962 0 0 1 0.1012,-0.002 31.955959,31.955962 0 0 1 0.1012,-7.9e-4 31.955959,31.955962 0 0 1 0.101,-7.8e-4 31.955959,31.955962 0 0 1 0.1012,-5.7e-4 31.955959,31.955962 0 0 1 0.1012,-5.4e-4 31.955959,31.955962 0 0 1 0.101,-8e-5 31.955959,31.955962 0 0 1 0.036,0 31.955959,31.955962 0 0 1 0.1012,2.6e-4 31.955959,31.955962 0 0 1 0.1011,5.8e-4 31.955959,31.955962 0 0 1 0.1011,7.8e-4 31.955959,31.955962 0 0 1 0.1011,7.9e-4 31.955959,31.955962 0 0 1 0.1012,0.002 31.955959,31.955962 0 0 1 0.1011,0.002 31.955959,31.955962 0 0 1 0.1011,0.002 31.955959,31.955962 0 0 1 0.1011,0.002 31.955959,31.955962 0 0 1 0.1011,0.003 31.955959,31.955962 0 0 1 0.1011,0.003 31.955959,31.955962 0 0 1 0.101,0.003 31.955959,31.955962 0 0 1 0.1012,0.004 31.955959,31.955962 0 0 1 0.101,0.004 31.955959,31.955962 0 0 1 0.101,0.005 31.955959,31.955962 0 0 1 0.101,0.005 31.955959,31.955962 0 0 1 0.101,0.005 31.955959,31.955962 0 0 1 0.1009,0.005 31.955959,31.955962 0 0 1 0.101,0.005 31.955959,31.955962 0 0 1 0.101,0.006 31.955959,31.955962 0 0 1 0.1009,0.006 31.955959,31.955962 0 0 1 0.101,0.007 31.955959,31.955962 0 0 1 0.1008,0.007 31.955959,31.955962 0 0 1 0.1009,0.007 31.955959,31.955962 0 0 1 0.1009,0.008 31.955959,31.955962 0 0 1 0.1008,0.008 31.955959,31.955962 0 0 1 0.1007,0.008 31.955959,31.955962 0 0 1 0.1008,0.009 31.955959,31.955962 0 0 1 0.1007,0.009 31.955959,31.955962 0 0 1 0.1008,0.009 31.955959,31.955962 0 0 1 0.1007,0.01 31.955959,31.955962 0 0 1 0.1006,0.01 31.955959,31.955962 0 0 1 0.1006,0.0101 31.955959,31.955962 0 0 1 0.1006,0.0105 31.955959,31.955962 0 0 1 0.1005,0.0107 31.955959,31.955962 0 0 1 0.1005,0.0111 31.955959,31.955962 0 0 1 0.1006,0.0115 31.955959,31.955962 0 0 1 0.1004,0.0118 31.955959,31.955962 0 0 1 0.1004,0.012 31.955959,31.955962 0 0 1 0.1003,0.0125 31.955959,31.955962 0 0 1 0.1004,0.0127 31.955959,31.955962 0 0 1 0.1002,0.013 31.955959,31.955962 0 0 1 0.1002,0.0133 31.955959,31.955962 0 0 1 0.1003,0.0136 31.955959,31.955962 0 0 1 0.1001,0.014 31.955959,31.955962 0 0 1 0.1001,0.0144 31.955959,31.955962 0 0 1 0.1001,0.0147 31.955959,31.955962 0 0 1 0.1001,0.0149 31.955959,31.955962 0 0 1 0.1,0.0152 31.955959,31.955962 0 0 1 0.1,0.0156 31.955959,31.955962 0 0 1 0.1,0.0159 31.955959,31.955962 0 0 1 0.1,0.0162 31.955959,31.955962 0 0 1 0.1,0.0165 31.955959,31.955962 0 0 1 0.1,0.0169 31.955959,31.955962 0 0 1 0.1,0.0172 31.955959,31.955962 0 0 1 0.1,0.0174 31.955959,31.955962 0 0 1 0.1,0.0179 31.955959,31.955962 0 0 1 0.1,0.018 31.955959,31.955962 0 0 1 0.099,0.0185 31.955959,31.955962 0 0 1 0.099,0.0187 31.955959,31.955962 0 0 1 0.099,0.0191 31.955959,31.955962 0 0 1 0.099,0.0194 31.955959,31.955962 0 0 1 0.099,0.0196 31.955959,31.955962 0 0 1 0.099,0.02 31.955959,31.955962 0 0 1 0.099,0.0203 31.955959,31.955962 0 0 1 0.099,0.0206 31.955959,31.955962 0 0 1 0.099,0.0209 31.955959,31.955962 0 0 1 0.099,0.0212 31.955959,31.955962 0 0 1 0.099,0.0216 31.955959,31.955962 0 0 1 0.099,0.0218 31.955959,31.955962 0 0 1 0.099,0.0222 31.955959,31.955962 0 0 1 0.099,0.0224 31.955959,31.955962 0 0 1 0.099,0.0228 31.955959,31.955962 0 0 1 0.099,0.0231 31.955959,31.955962 0 0 1 0.098,0.0235 31.955959,31.955962 0 0 1 0.098,0.0237 31.955959,31.955962 0 0 1 0.098,0.0241 31.955959,31.955962 0 0 1 0.098,0.0244 31.955959,31.955962 0 0 1 0.098,0.0247 31.955959,31.955962 0 0 1 0.098,0.0249 31.955959,31.955962 0 0 1 0.098,0.0253 31.955959,31.955962 0 0 1 0.098,0.0256 31.955959,31.955962 0 0 1 0.098,0.0259 31.955959,31.955962 0 0 1 0.098,0.0262 31.955959,31.955962 0 0 1 0.098,0.0266 31.955959,31.955962 0 0 1 0.098,0.0268 31.955959,31.955962 0 0 1 0.097,0.0271 31.955959,31.955962 0 0 1 0.097,0.0275 31.955959,31.955962 0 0 1 0.097,0.0278 31.955959,31.955962 0 0 1 0.097,0.028 31.955959,31.955962 0 0 1 0.097,0.0284 31.955959,31.955962 0 0 1 0.097,0.0286 31.955959,31.955962 0 0 1 0.097,0.029 31.955959,31.955962 0 0 1 0.097,0.0293 31.955959,31.955962 0 0 1 0.097,0.0296 31.955959,31.955962 0 0 1 0.097,0.0299 31.955959,31.955962 0 0 1 0.096,0.0302 31.955959,31.955962 0 0 1 0.096,0.0305 31.955959,31.955962 0 0 1 0.096,0.0308 31.955959,31.955962 0 0 1 0.096,0.0311 31.955959,31.955962 0 0 1 0.096,0.0315 31.955959,31.955962 0 0 1 0.096,0.0317 31.955959,31.955962 0 0 1 0.096,0.032 31.955959,31.955962 0 0 1 0.096,0.0323 31.955959,31.955962 0 0 1 0.096,0.0326 31.955959,31.955962 0 0 1 0.096,0.0329 31.955959,31.955962 0 0 1 0.096,0.0333 31.955959,31.955962 0 0 1 0.095,0.0336 31.955959,31.955962 0 0 1 0.095,0.0339 31.955959,31.955962 0 0 1 0.095,0.0341 31.955959,31.955962 0 0 1 0.095,0.0345 31.955959,31.955962 0 0 1 0.095,0.0347 31.955959,31.955962 0 0 1 0.095,0.0351 31.955959,31.955962 0 0 1 0.095,0.0354 31.955959,31.955962 0 0 1 0.095,0.0356 31.955959,31.955962 0 0 1 0.094,0.036 31.955959,31.955962 0 0 1 0.095,0.0362 31.955959,31.955962 0 0 1 0.094,0.0365 31.955959,31.955962 0 0 1 0.094,0.0369 31.955959,31.955962 0 0 1 0.094,0.0371 31.955959,31.955962 0 0 1 0.094,0.0375 31.955959,31.955962 0 0 1 0.094,0.0377 31.955959,31.955962 0 0 1 0.094,0.038 31.955959,31.955962 0 0 1 0.094,0.0384 31.955959,31.955962 0 0 1 0.093,0.0387 31.955959,31.955962 0 0 1 0.093,0.0389 31.955959,31.955962 0 0 1 0.093,0.0392 31.955959,31.955962 0 0 1 0.093,0.0395 31.955959,31.955962 0 0 1 0.093,0.0398 31.955959,31.955962 0 0 1 0.093,0.0402 31.955959,31.955962 0 0 1 0.093,0.0404 31.955959,31.955962 0 0 1 0.093,0.0406 31.955959,31.955962 0 0 1 0.092,0.041 31.955959,31.955962 0 0 1 0.092,0.0413 31.955959,31.955962 0 0 1 0.092,0.0416 31.955959,31.955962 0 0 1 0.092,0.0419 31.955959,31.955962 0 0 1 0.092,0.0421 31.955959,31.955962 0 0 1 0.092,0.0425 31.955959,31.955962 0 0 1 0.092,0.0427 31.955959,31.955962 0 0 1 0.091,0.0431 31.955959,31.955962 0 0 1 0.092,0.0434 31.955959,31.955962 0 0 1 0.091,0.0435 31.955959,31.955962 0 0 1 0.091,0.0439 31.955959,31.955962 0 0 1 0.091,0.0442 31.955959,31.955962 0 0 1 0.091,0.0445 31.955959,31.955962 0 0 1 0.091,0.0448 31.955959,31.955962 0 0 1 0.091,0.0451 31.955959,31.955962 0 0 1 0.09,0.0453 31.955959,31.955962 0 0 1 0.09,0.0457 31.955959,31.955962 0 0 1 0.09,0.0459 31.955959,31.955962 0 0 1 0.09,0.0461 31.955959,31.955962 0 0 1 0.09,0.0465 31.955959,31.955962 0 0 1 0.09,0.0467 31.955959,31.955962 0 0 1 0.09,0.0471 31.955959,31.955962 0 0 1 0.089,0.0473 31.955959,31.955962 0 0 1 0.089,0.0477 31.955959,31.955962 0 0 1 0.089,0.0478 31.955959,31.955962 0 0 1 0.089,0.0482 31.955959,31.955962 0 0 1 0.089,0.0485 31.955959,31.955962 0 0 1 0.089,0.0487 31.955959,31.955962 0 0 1 0.088,0.049 31.955959,31.955962 0 0 1 0.088,0.0493 31.955959,31.955962 0 0 1 0.088,0.0496 31.955959,31.955962 0 0 1 0.088,0.0498 31.955959,31.955962 0 0 1 0.088,0.0501 31.955959,31.955962 0 0 1 0.088,0.0504 31.955959,31.955962 0 0 1 0.088,0.0506 31.955959,31.955962 0 0 1 0.087,0.051 31.955959,31.955962 0 0 1 0.087,0.0512 31.955959,31.955962 0 0 1 0.087,0.0515 31.955959,31.955962 0 0 1 0.087,0.0517 31.955959,31.955962 0 0 1 0.087,0.0521 31.955959,31.955962 0 0 1 0.087,0.0523 31.955959,31.955962 0 0 1 0.086,0.0526 31.955959,31.955962 0 0 1 0.086,0.0529 31.955959,31.955962 0 0 1 0.086,0.0531 31.955959,31.955962 0 0 1 0.086,0.0533 31.955959,31.955962 0 0 1 0.086,0.0537 31.955959,31.955962 0 0 1 0.086,0.054 31.955959,31.955962 0 0 1 0.085,0.0542 31.955959,31.955962 0 0 1 0.085,0.0546 31.955959,31.955962 0 0 1 0.085,0.0547 31.955959,31.955962 0 0 1 0.085,0.055 31.955959,31.955962 0 0 1 0.085,0.0554 31.955959,31.955962 0 0 1 0.084,0.0556 31.955959,31.955962 0 0 1 0.084,0.0558 31.955959,31.955962 0 0 1 0.084,0.0561 31.955959,31.955962 0 0 1 0.084,0.0564 31.955959,31.955962 0 0 1 0.084,0.0567 31.955959,31.955962 0 0 1 0.083,0.0569 31.955959,31.955962 0 0 1 0.083,0.0572 31.955959,31.955962 0 0 1 0.083,0.0575 31.955959,31.955962 0 0 1 0.083,0.0577 31.955959,31.955962 0 0 1 0.083,0.058 31.955959,31.955962 0 0 1 0.083,0.0583 31.955959,31.955962 0 0 1 0.083,0.0584 31.955959,31.955962 0 0 1 0.082,0.0588 31.955959,31.955962 0 0 1 0.082,0.059 31.955959,31.955962 0 0 1 0.082,0.0593 31.955959,31.955962 0 0 1 0.082,0.0595 31.955959,31.955962 0 0 1 0.082,0.0598 31.955959,31.955962 0 0 1 0.081,0.0601 31.955959,31.955962 0 0 1 0.081,0.0603 31.955959,31.955962 0 0 1 0.081,0.0605 31.955959,31.955962 0 0 1 0.081,0.0608 31.955959,31.955962 0 0 1 0.081,0.061 31.955959,31.955962 0 0 1 0.08,0.0613 31.955959,31.955962 0 0 1 0.08,0.0616 31.955959,31.955962 0 0 1 0.08,0.0618 31.955959,31.955962 0 0 1 0.08,0.062 31.955959,31.955962 0 0 1 0.08,0.0623 31.955959,31.955962 0 0 1 0.079,0.0626 31.955959,31.955962 0 0 1 0.079,0.0628 31.955959,31.955962 0 0 1 0.079,0.0631 31.955959,31.955962 0 0 1 0.079,0.0633 31.955959,31.955962 0 0 1 0.079,0.0636 31.955959,31.955962 0 0 1 0.078,0.0639 31.955959,31.955962 0 0 1 0.078,0.0641 31.955959,31.955962 0 0 1 0.078,0.0642 31.955959,31.955962 0 0 1 0.078,0.0646 31.955959,31.955962 0 0 1 0.078,0.0648 31.955959,31.955962 0 0 1 0.078,0.065 31.955959,31.955962 0 0 1 0.078,0.0653 31.955959,31.955962 0 0 1 0.077,0.0656 31.955959,31.955962 0 0 1 0.077,0.0657 31.955959,31.955962 0 0 1 0.077,0.066 31.955959,31.955962 0 0 1 0.076,0.0663 31.955959,31.955962 0 0 1 0.076,0.0664 31.955959,31.955962 0 0 1 0.076,0.0668 31.955959,31.955962 0 0 1 0.076,0.067 31.955959,31.955962 0 0 1 0.075,0.0671 31.955959,31.955962 0 0 1 0.075,0.0675 31.955959,31.955962 0 0 1 0.075,0.0677 31.955959,31.955962 0 0 1 0.075,0.068 31.955959,31.955962 0 0 1 0.074,0.0682 31.955959,31.955962 0 0 1 0.075,0.0684 31.955959,31.955962 0 0 1 0.074,0.0687 31.955959,31.955962 0 0 1 0.074,0.0689 31.955959,31.955962 0 0 1 0.074,0.0691 31.955959,31.955962 0 0 1 0.074,0.0694 31.955959,31.955962 0 0 1 0.073,0.0696 31.955959,31.955962 0 0 1 0.073,0.0698 31.955959,31.955962 0 0 1 0.073,0.07 31.955959,31.955962 0 0 1 0.073,0.0703 31.955959,31.955962 0 0 1 0.073,0.0705 31.955959,31.955962 0 0 1 0.072,0.0708 31.955959,31.955962 0 0 1 0.072,0.071 31.955959,31.955962 0 0 1 0.071,0.0712 31.955959,31.955962 0 0 1 0.071,0.0714 31.955959,31.955962 0 0 1 0.071,0.0717 31.955959,31.955962 0 0 1 0.071,0.0719 31.955959,31.955962 0 0 1 0.071,0.0722 31.955959,31.955962 0 0 1 0.071,0.0723 31.955959,31.955962 0 0 1 0.071,0.0726 31.955959,31.955962 0 0 1 0.071,0.0728 31.955959,31.955962 0 0 1 0.07,0.073 31.955959,31.955962 0 0 1 0.07,0.0732 31.955959,31.955962 0 0 1 0.07,0.0735 31.955959,31.955962 0 0 1 0.069,0.0737 31.955959,31.955962 0 0 1 0.069,0.0738 31.955959,31.955962 0 0 1 0.069,0.0742 31.955959,31.955962 0 0 1 0.069,0.0743 31.955959,31.955962 0 0 1 0.068,0.0746 31.955959,31.955962 0 0 1 0.068,0.0747 31.955959,31.955962 0 0 1 0.067,0.075 31.955959,31.955962 0 0 1 0.068,0.0752 31.955959,31.955962 0 0 1 0.067,0.0754 31.955959,31.955962 0 0 1 0.067,0.0756 31.955959,31.955962 0 0 1 0.067,0.0759 31.955959,31.955962 0 0 1 0.067,0.076 31.955959,31.955962 0 0 1 0.067,0.0762 31.955959,31.955962 0 0 1 0.066,0.0765 31.955959,31.955962 0 0 1 0.066,0.0766 31.955959,31.955962 0 0 1 0.066,0.0769 31.955959,31.955962 0 0 1 0.065,0.0771 31.955959,31.955962 0 0 1 0.065,0.0773 31.955959,31.955962 0 0 1 0.065,0.0775 31.955959,31.955962 0 0 1 0.064,0.0777 31.955959,31.955962 0 0 1 0.064,0.0779 31.955959,31.955962 0 0 1 0.064,0.0781 31.955959,31.955962 0 0 1 0.064,0.0784 31.955959,31.955962 0 0 1 0.063,0.0785 31.955959,31.955962 0 0 1 0.064,0.0788 31.955959,31.955962 0 0 1 0.064,0.0789 31.955959,31.955962 0 0 1 0.063,0.0791 31.955959,31.955962 0 0 1 0.063,0.0794 31.955959,31.955962 0 0 1 0.063,0.0795 31.955959,31.955962 0 0 1 0.062,0.0798 31.955959,31.955962 0 0 1 0.062,0.0798 31.955959,31.955962 0 0 1 0.062,0.0802 31.955959,31.955962 0 0 1 0.061,0.0803 31.955959,31.955962 0 0 1 0.061,0.0804 31.955959,31.955962 0 0 1 0.061,0.0807 31.955959,31.955962 0 0 1 0.06,0.0809 31.955959,31.955962 0 0 1 0.06,0.0811 31.955959,31.955962 0 0 1 0.06,0.0813 31.955959,31.955962 0 0 1 0.06,0.0814 31.955959,31.955962 0 0 1 0.06,0.0817 31.955959,31.955962 0 0 1 0.06,0.0819 31.955959,31.955962 0 0 1 0.059,0.0819 31.955959,31.955962 0 0 1 0.059,0.0822 31.955959,31.955962 0 0 1 0.059,0.0824 31.955959,31.955962 0 0 1 0.058,0.0826 31.955959,31.955962 0 0 1 0.058,0.0827 31.955959,31.955962 0 0 1 0.058,0.0829 31.955959,31.955962 0 0 1 0.057,0.0832 31.955959,31.955962 0 0 1 0.057,0.0833 31.955959,31.955962 0 0 1 0.057,0.0834 31.955959,31.955962 0 0 1 0.057,0.0837 31.955959,31.955962 0 0 1 0.056,0.0838 31.955959,31.955962 0 0 1 0.056,0.0841 31.955959,31.955962 0 0 1 0.056,0.0841 31.955959,31.955962 0 0 1 0.056,0.0844 31.955959,31.955962 0 0 1 0.055,0.0845 31.955959,31.955962 0 0 1 0.056,0.0848 31.955959,31.955962 0 0 1 0.055,0.0849 31.955959,31.955962 0 0 1 0.055,0.085 31.955959,31.955962 0 0 1 0.055,0.0853 31.955959,31.955962 0 0 1 0.054,0.0854 31.955959,31.955962 0 0 1 0.054,0.0856 31.955959,31.955962 0 0 1 0.053,0.0858 31.955959,31.955962 0 0 1 0.053,0.0859 31.955959,31.955962 0 0 1 0.053,0.0861 31.955959,31.955962 0 0 1 0.053,0.0863 31.955959,31.955962 0 0 1 0.053,0.0865 31.955959,31.955962 0 0 1 0.053,0.0866 31.955959,31.955962 0 0 1 0.052,0.0867 31.955959,31.955962 0 0 1 0.052,0.0869 31.955959,31.955962 0 0 1 0.051,0.0872 31.955959,31.955962 0 0 1 0.051,0.0873 31.955959,31.955962 0 0 1 0.051,0.0873 31.955959,31.955962 0 0 1 0.051,0.0876 31.955959,31.955962 0 0 1 0.05,0.0878 31.955959,31.955962 0 0 1 0.05,0.0879 31.955959,31.955962 0 0 1 0.049,0.088 31.955959,31.955962 0 0 1 0.049,0.0882 31.955959,31.955962 0 0 1 0.049,0.0883 31.955959,31.955962 0 0 1 0.049,0.0886 31.955959,31.955962 0 0 1 0.049,0.0887 31.955959,31.955962 0 0 1 0.049,0.0888 31.955959,31.955962 0 0 1 0.048,0.089 31.955959,31.955962 0 0 1 0.048,0.0891 31.955959,31.955962 0 0 1 0.047,0.0893 31.955959,31.955962 0 0 1 0.047,0.0895 31.955959,31.955962 0 0 1 0.047,0.0895 31.955959,31.955962 0 0 1 0.047,0.0897 31.955959,31.955962 0 0 1 0.046,0.0899 31.955959,31.955962 0 0 1 0.046,0.09 31.955959,31.955962 0 0 1 0.046,0.0902 31.955959,31.955962 0 0 1 0.045,0.0904 31.955959,31.955962 0 0 1 0.045,0.0904 31.955959,31.955962 0 0 1 0.045,0.0906 31.955959,31.955962 0 0 1 0.045,0.0907 31.955959,31.955962 0 0 1 0.045,0.091 31.955959,31.955962 0 0 1 0.044,0.091 31.955959,31.955962 0 0 1 0.044,0.0911 31.955959,31.955962 0 0 1 0.043,0.0913 31.955959,31.955962 0 0 1 0.043,0.0914 31.955959,31.955962 0 0 1 0.043,0.0916 31.955959,31.955962 0 0 1 0.042,0.0917 31.955959,31.955962 0 0 1 0.042,0.0918 31.955959,31.955962 0 0 1 0.042,0.0919 31.955959,31.955962 0 0 1 0.042,0.0921 31.955959,31.955962 0 0 1 0.042,0.0922 31.955959,31.955962 0 0 1 0.041,0.0924 31.955959,31.955962 0 0 1 0.041,0.0926 31.955959,31.955962 0 0 1 0.041,0.0926 31.955959,31.955962 0 0 1 0.041,0.0927 31.955959,31.955962 0 0 1 0.04,0.0929 31.955959,31.955962 0 0 1 0.04,0.093 31.955959,31.955962 0 0 1 0.039,0.0931 31.955959,31.955962 0 0 1 0.038,0.0933 31.955959,31.955962 0 0 1 0.038,0.0934 31.955959,31.955962 0 0 1 0.039,0.0934 31.955959,31.955962 0 0 1 0.038,0.0936 31.955959,31.955962 0 0 1 0.038,0.0938 31.955959,31.955962 0 0 1 0.038,0.0939 31.955959,31.955962 0 0 1 0.038,0.094 31.955959,31.955962 0 0 1 0.037,0.0941 31.955959,31.955962 0 0 1 0.036,0.0942 31.955959,31.955962 0 0 1 0.037,0.0943 31.955959,31.955962 0 0 1 0.036,0.0945 31.955959,31.955962 0 0 1 0.036,0.0945 31.955959,31.955962 0 0 1 0.035,0.0947 31.955959,31.955962 0 0 1 0.035,0.0949 31.955959,31.955962 0 0 1 0.035,0.0948 31.955959,31.955962 0 0 1 0.034,0.095 31.955959,31.955962 0 0 1 0.034,0.0951 31.955959,31.955962 0 0 1 0.034,0.0952 31.955959,31.955962 0 0 1 0.034,0.0954 31.955959,31.955962 0 0 1 0.034,0.0954 31.955959,31.955962 0 0 1 0.033,0.0956 31.955959,31.955962 0 0 1 0.033,0.0957 31.955959,31.955962 0 0 1 0.032,0.0957 31.955959,31.955962 0 0 1 0.032,0.0959 31.955959,31.955962 0 0 1 0.032,0.0959 31.955959,31.955962 0 0 1 0.031,0.0961 31.955959,31.955962 0 0 1 0.031,0.0962 31.955959,31.955962 0 0 1 0.031,0.0962 31.955959,31.955962 0 0 1 0.031,0.0964 31.955959,31.955962 0 0 1 0.031,0.0965 31.955959,31.955962 0 0 1 0.031,0.0965 31.955959,31.955962 0 0 1 0.03,0.0966 31.955959,31.955962 0 0 1 0.03,0.0967 31.955959,31.955962 0 0 1 0.029,0.0969 31.955959,31.955962 0 0 1 0.029,0.0969 31.955959,31.955962 0 0 1 0.028,0.097 31.955959,31.955962 0 0 1 0.028,0.0971 31.955959,31.955962 0 0 1 0.028,0.0972 31.955959,31.955962 0 0 1 0.027,0.0973 31.955959,31.955962 0 0 1 0.027,0.0973 31.955959,31.955962 0 0 1 0.027,0.0974 31.955959,31.955962 0 0 1 0.027,0.0976 31.955959,31.955962 0 0 1 0.026,0.0976 31.955959,31.955962 0 0 1 0.027,0.0977 31.955959,31.955962 0 0 1 0.026,0.0978 31.955959,31.955962 0 0 1 0.026,0.0979 31.955959,31.955962 0 0 1 0.025,0.0978 31.955959,31.955962 0 0 1 0.025,0.098 31.955959,31.955962 0 0 1 0.024,0.0981 31.955959,31.955962 0 0 1 0.024,0.0982 31.955959,31.955962 0 0 1 0.024,0.0982 31.955959,31.955962 0 0 1 0.024,0.0984 31.955959,31.955962 0 0 1 0.024,0.0984 31.955959,31.955962 0 0 1 0.023,0.0985 31.955959,31.955962 0 0 1 0.023,0.0986 31.955959,31.955962 0 0 1 0.022,0.0986 31.955959,31.955962 0 0 1 0.022,0.0987 31.955959,31.955962 0 0 1 0.022,0.0987 31.955959,31.955962 0 0 1 0.022,0.0988 31.955959,31.955962 0 0 1 0.021,0.0989 31.955959,31.955962 0 0 1 0.02,0.0989 31.955959,31.955962 0 0 1 0.02,0.0991 31.955959,31.955962 0 0 1 0.02,0.0991 31.955959,31.955962 0 0 1 0.02,0.0991 31.955959,31.955962 0 0 1 0.02,0.0993 31.955959,31.955962 0 0 1 0.02,0.0993 31.955959,31.955962 0 0 1 0.019,0.0994 31.955959,31.955962 0 0 1 0.019,0.0994 31.955959,31.955962 0 0 1 0.018,0.0995 31.955959,31.955962 0 0 1 0.018,0.0995 31.955959,31.955962 0 0 1 0.018,0.0995 31.955959,31.955962 0 0 1 0.018,0.0996 31.955959,31.955962 0 0 1 0.017,0.0997 31.955959,31.955962 0 0 1 0.016,0.0997 31.955959,31.955962 0 0 1 0.016,0.0998 31.955959,31.955962 0 0 1 0.016,0.0999 31.955959,31.955962 0 0 1 0.016,0.0999 31.955959,31.955962 0 0 1 0.016,0.0999 31.955959,31.955962 0 0 1 0.015,0.1 31.955959,31.955962 0 0 1 0.015,0.10007 31.955959,31.955962 0 0 1 0.014,0.10007 31.955959,31.955962 0 0 1 0.014,0.10016 31.955959,31.955962 0 0 1 0.013,0.10015 31.955959,31.955962 0 0 1 0.014,0.10025 31.955959,31.955962 0 0 1 0.013,0.10024 31.955959,31.955962 0 0 1 0.013,0.10024 31.955959,31.955962 0 0 1 0.013,0.10034 31.955959,31.955962 0 0 1 0.013,0.10042 31.955959,31.955962 0 0 1 0.012,0.10042 31.955959,31.955962 0 0 1 0.012,0.10043 31.955959,31.955962 0 0 1 0.012,0.1005 31.955959,31.955962 0 0 1 0.011,0.10052 31.955959,31.955962 0 0 1 0.011,0.1006 31.955959,31.955962 0 0 1 0.01,0.1006 31.955959,31.955962 0 0 1 0.01,0.10059 31.955959,31.955962 0 0 1 0.01,0.10069 31.955959,31.955962 0 0 1 0.01,0.10069 31.955959,31.955962 0 0 1 0.01,0.10068 31.955959,31.955962 0 0 1 0.01,0.10078 31.955959,31.955962 0 0 1 0.01,0.10078 31.955959,31.955962 0 0 1 0.01,0.10077 31.955959,31.955962 0 0 1 0.01,0.10086 31.955959,31.955962 0 0 1 0.01,0.10087 31.955959,31.955962 0 0 1 0.01,0.10087 31.955959,31.955962 0 0 1 0.01,0.10086 31.955959,31.955962 0 0 1 0.01,0.10095 31.955959,31.955962 0 0 1 0.01,0.10086 31.955959,31.955962 0 0 1 0.01,0.10104 31.955959,31.955962 0 0 1 0.01,0.10095 31.955959,31.955962 0 0 1 0.01,0.10096 31.955959,31.955962 0 0 1 0.01,0.10104 31.955959,31.955962 0 0 1 0.01,0.10104 31.955959,31.955962 0 0 1 0.01,0.10103 31.955959,31.955962 0 0 1 0.01,0.10105 31.955959,31.955962 0 0 1 0.01,0.10104 31.955959,31.955962 0 0 1 0.01,0.10104 31.955959,31.955962 0 0 1 0.01,0.10113 31.955959,31.955962 0 0 1 0,0.10104 31.955959,31.955962 0 0 1 0,0.10113 31.955959,31.955962 0 0 1 0,0.10113 31.955959,31.955962 0 0 1 0,0.10112 31.955959,31.955962 0 0 1 0,0.10114 31.955959,31.955962 0 0 1 0,0.10112 31.955959,31.955962 0 0 1 0,0.10104 31.955959,31.955962 0 0 1 5e-4,0.10113 31.955959,31.955962 0 0 1 10e-5,0.10113 31.955959,31.955962 0 0 1 0,0.0361 31.955959,31.955962 0 0 1 -3e-4,0.10112 31.955959,31.955962 0 0 1 0,0.10114 31.955959,31.955962 0 0 1 0,0.10112 31.955959,31.955962 0 0 1 0,0.10113 31.955959,31.955962 0 0 1 0,0.10113 31.955959,31.955962 0 0 1 0,0.10113 31.955959,31.955962 0 0 1 0,0.10104 31.955959,31.955962 0 0 1 0,0.10113 31.955959,31.955962 0 0 1 -0.01,0.10113 31.955959,31.955962 0 0 1 -0.01,0.10104 31.955959,31.955962 0 0 1 -0.01,0.10105 31.955959,31.955962 0 0 1 -0.01,0.10103 31.955959,31.955962 0 0 1 -0.01,0.10113 31.955959,31.955962 0 0 1 -0.01,0.10095 31.955959,31.955962 0 0 1 -0.01,0.10104 31.955959,31.955962 0 0 1 -0.01,0.10105 31.955959,31.955962 0 0 1 -0.01,0.10094 31.955959,31.955962 0 0 1 -0.01,0.10096 31.955959,31.955962 0 0 1 -0.01,0.10095 31.955959,31.955962 0 0 1 -0.01,0.10096 31.955959,31.955962 0 0 1 -0.01,0.10094 31.955959,31.955962 0 0 1 -0.01,0.10087 31.955959,31.955962 0 0 1 -0.01,0.10086 31.955959,31.955962 0 0 1 -0.01,0.10086 31.955959,31.955962 0 0 1 -0.01,0.10078 31.955959,31.955962 0 0 1 -0.01,0.10078 31.955959,31.955962 0 0 1 -0.01,0.10078 31.955959,31.955962 0 0 1 -0.01,0.10077 31.955959,31.955962 0 0 1 -0.01,0.10068 31.955959,31.955962 0 0 1 -0.01,0.10069 31.955959,31.955962 0 0 1 -0.01,0.1006 31.955959,31.955962 0 0 1 -0.01,0.10069 31.955959,31.955962 0 0 1 -0.01,0.10051 31.955959,31.955962 0 0 1 -0.011,0.1006 31.955959,31.955962 0 0 1 -0.011,0.1005 31.955959,31.955962 0 0 1 -0.012,0.10052 31.955959,31.955962 0 0 1 -0.012,0.10042 31.955959,31.955962 0 0 1 -0.012,0.10042 31.955959,31.955962 0 0 1 -0.012,0.10034 31.955959,31.955962 0 0 1 -0.013,0.10033 31.955959,31.955962 0 0 1 -0.013,0.10024 31.955959,31.955962 0 0 1 -0.013,0.10024 31.955959,31.955962 0 0 1 -0.014,0.10025 31.955959,31.955962 0 0 1 -0.013,0.10015 31.955959,31.955962 0 0 1 -0.014,0.10008 31.955959,31.955962 0 0 1 -0.015,0.10006 31.955959,31.955962 0 0 1 -0.015,0.10008 31.955959,31.955962 0 0 1 -0.016,0.1 31.955959,31.955962 0 0 1 -0.016,0.0999 31.955959,31.955962 0 0 1 -0.016,0.0999 31.955959,31.955962 0 0 1 -0.016,0.0998 31.955959,31.955962 0 0 1 -0.016,0.0998 31.955959,31.955962 0 0 1 -0.017,0.0997 31.955959,31.955962 0 0 1 -0.017,0.0996 31.955959,31.955962 0 0 1 -0.017,0.0996 31.955959,31.955962 0 0 1 -0.017,0.0995 31.955959,31.955962 0 0 1 -0.018,0.0996 31.955959,31.955962 0 0 1 -0.018,0.0994 31.955959,31.955962 0 0 1 -0.019,0.0994 31.955959,31.955962 0 0 1 -0.02,0.0993 31.955959,31.955962 0 0 1 -0.02,0.0993 31.955959,31.955962 0 0 1 -0.02,0.0992 31.955959,31.955962 0 0 1 -0.02,0.0992 31.955959,31.955962 0 0 1 -0.02,0.0991 31.955959,31.955962 0 0 1 -0.02,0.099 31.955959,31.955962 0 0 1 -0.021,0.0989 31.955959,31.955962 0 0 1 -0.021,0.0988 31.955959,31.955962 0 0 1 -0.022,0.0988 31.955959,31.955962 0 0 1 -0.022,0.0987 31.955959,31.955962 0 0 1 -0.022,0.0987 31.955959,31.955962 0 0 1 -0.022,0.0986 31.955959,31.955962 0 0 1 -0.023,0.0986 31.955959,31.955962 0 0 1 -0.024,0.0985 31.955959,31.955962 0 0 1 -0.023,0.0984 31.955959,31.955962 0 0 1 -0.024,0.0983 31.955959,31.955962 0 0 1 -0.024,0.0982 31.955959,31.955962 0 0 1 -0.024,0.0981 31.955959,31.955962 0 0 1 -0.024,0.0981 31.955959,31.955962 0 0 1 -0.025,0.0979 31.955959,31.955962 0 0 1 -0.025,0.098 31.955959,31.955962 0 0 1 -0.026,0.0979 31.955959,31.955962 0 0 1 -0.026,0.0978 31.955959,31.955962 0 0 1 -0.026,0.0976 31.955959,31.955962 0 0 1 -0.027,0.0976 31.955959,31.955962 0 0 1 -0.027,0.0975 31.955959,31.955962 0 0 1 -0.028,0.0974 31.955959,31.955962 0 0 1 -0.027,0.0974 31.955959,31.955962 0 0 1 -0.028,0.0972 31.955959,31.955962 0 0 1 -0.028,0.0972 31.955959,31.955962 0 0 1 -0.028,0.0971 31.955959,31.955962 0 0 1 -0.028,0.097 31.955959,31.955962 0 0 1 -0.029,0.0969 31.955959,31.955962 0 0 1 -0.03,0.0968 31.955959,31.955962 0 0 1 -0.03,0.0967 31.955959,31.955962 0 0 1 -0.03,0.0965 31.955959,31.955962 0 0 1 -0.031,0.0965 31.955959,31.955962 0 0 1 -0.031,0.0964 31.955959,31.955962 0 0 1 -0.031,0.0964 31.955959,31.955962 0 0 1 -0.031,0.0962 31.955959,31.955962 0 0 1 -0.031,0.0961 31.955959,31.955962 0 0 1 -0.032,0.0961 31.955959,31.955962 0 0 1 -0.032,0.0959 31.955959,31.955962 0 0 1 -0.032,0.0958 31.955959,31.955962 0 0 1 -0.032,0.0957 31.955959,31.955962 0 0 1 -0.033,0.0956 31.955959,31.955962 0 0 1 -0.033,0.0955 31.955959,31.955962 0 0 1 -0.034,0.0955 31.955959,31.955962 0 0 1 -0.034,0.0953 31.955959,31.955962 0 0 1 -0.034,0.0951 31.955959,31.955962 0 0 1 -0.035,0.0951 31.955959,31.955962 0 0 1 -0.034,0.0949 31.955959,31.955962 0 0 1 -0.035,0.0949 31.955959,31.955962 0 0 1 -0.035,0.0948 31.955959,31.955962 0 0 1 -0.036,0.0947 31.955959,31.955962 0 0 1 -0.036,0.0945 31.955959,31.955962 0 0 1 -0.036,0.0944 31.955959,31.955962 0 0 1 -0.036,0.0943 31.955959,31.955962 0 0 1 -0.037,0.0941 31.955959,31.955962 0 0 1 -0.037,0.0941 31.955959,31.955962 0 0 1 -0.038,0.094 31.955959,31.955962 0 0 1 -0.038,0.0938 31.955959,31.955962 0 0 1 -0.038,0.0937 31.955959,31.955962 0 0 1 -0.038,0.0936 31.955959,31.955962 0 0 1 -0.039,0.0934 31.955959,31.955962 0 0 1 -0.038,0.0934 31.955959,31.955962 0 0 1 -0.039,0.0932 31.955959,31.955962 0 0 1 -0.039,0.0931 31.955959,31.955962 0 0 1 -0.04,0.093 31.955959,31.955962 0 0 1 -0.04,0.0928 31.955959,31.955962 0 0 1 -0.041,0.0927 31.955959,31.955962 0 0 1 -0.041,0.0926 31.955959,31.955962 0 0 1 -0.041,0.0925 31.955959,31.955962 0 0 1 -0.041,0.0923 31.955959,31.955962 0 0 1 -0.042,0.0922 31.955959,31.955962 0 0 1 -0.041,0.0921 31.955959,31.955962 0 0 1 -0.042,0.0919 31.955959,31.955962 0 0 1 -0.042,0.0918 31.955959,31.955962 0 0 1 -0.043,0.0917 31.955959,31.955962 0 0 1 -0.043,0.0915 31.955959,31.955962 0 0 1 -0.043,0.0914 31.955959,31.955962 0 0 1 -0.043,0.0912 31.955959,31.955962 0 0 1 -0.044,0.0911 31.955959,31.955962 0 0 1 -0.045,0.091 31.955959,31.955962 0 0 1 -0.045,0.0908 31.955959,31.955962 0 0 1 -0.045,0.0907 31.955959,31.955962 0 0 1 -0.045,0.0906 31.955959,31.955962 0 0 1 -0.045,0.0903 31.955959,31.955962 0 0 1 -0.045,0.0903 31.955959,31.955962 0 0 1 -0.046,0.0902 31.955959,31.955962 0 0 1 -0.046,0.0899 31.955959,31.955962 0 0 1 -0.047,0.0898 31.955959,31.955962 0 0 1 -0.047,0.0897 31.955959,31.955962 0 0 1 -0.047,0.0896 31.955959,31.955962 0 0 1 -0.047,0.0894 31.955959,31.955962 0 0 1 -0.048,0.0892 31.955959,31.955962 0 0 1 -0.048,0.0891 31.955959,31.955962 0 0 1 -0.048,0.0889 31.955959,31.955962 0 0 1 -0.049,0.0888 31.955959,31.955962 0 0 1 -0.049,0.0886 31.955959,31.955962 0 0 1 -0.049,0.0885 31.955959,31.955962 0 0 1 -0.049,0.0883 31.955959,31.955962 0 0 1 -0.049,0.0882 31.955959,31.955962 0 0 1 -0.05,0.088 31.955959,31.955962 0 0 1 -0.05,0.0878 31.955959,31.955962 0 0 1 -0.05,0.0877 31.955959,31.955962 0 0 1 -0.051,0.0875 31.955959,31.955962 0 0 1 -0.051,0.0873 31.955959,31.955962 0 0 1 -0.051,0.0872 31.955959,31.955962 0 0 1 -0.052,0.087 31.955959,31.955962 0 0 1 -0.052,0.0869 31.955959,31.955962 0 0 1 -0.052,0.0867 31.955959,31.955962 0 0 1 -0.053,0.0865 31.955959,31.955962 0 0 1 -0.052,0.0865 31.955959,31.955962 0 0 1 -0.053,0.0862 31.955959,31.955962 0 0 1 -0.053,0.086 31.955959,31.955962 0 0 1 -0.053,0.0858 31.955959,31.955962 0 0 1 -0.053,0.0858 31.955959,31.955962 0 0 1 -0.054,0.0855 31.955959,31.955962 0 0 1 -0.054,0.0854 31.955959,31.955962 0 0 1 -0.055,0.0852 31.955959,31.955962 0 0 1 -0.055,0.085 31.955959,31.955962 0 0 1 -0.055,0.0849 31.955959,31.955962 0 0 1 -0.056,0.0847 31.955959,31.955962 0 0 1 -0.055,0.0844 31.955959,31.955962 0 0 1 -0.056,0.0843 31.955959,31.955962 0 0 1 -0.056,0.0842 31.955959,31.955962 0 0 1 -0.056,0.084 31.955959,31.955962 0 0 1 -0.056,0.0838 31.955959,31.955962 0 0 1 -0.057,0.0835 31.955959,31.955962 0 0 1 -0.057,0.0835 31.955959,31.955962 0 0 1 -0.057,0.0832 31.955959,31.955962 0 0 1 -0.057,0.0831 31.955959,31.955962 0 0 1 -0.058,0.0828 31.955959,31.955962 0 0 1 -0.058,0.0827 31.955959,31.955962 0 0 1 -0.059,0.0825 31.955959,31.955962 0 0 1 -0.059,0.0823 31.955959,31.955962 0 0 1 -0.059,0.0821 31.955959,31.955962 0 0 1 -0.06,0.0819 31.955959,31.955962 0 0 1 -0.06,0.0818 31.955959,31.955962 0 0 1 -0.06,0.0816 31.955959,31.955962 0 0 1 -0.06,0.0814 31.955959,31.955962 0 0 1 -0.06,0.0812 31.955959,31.955962 0 0 1 -0.06,0.081 31.955959,31.955962 0 0 1 -0.061,0.0808 31.955959,31.955962 0 0 1 -0.061,0.0806 31.955959,31.955962 0 0 1 -0.061,0.0804 31.955959,31.955962 0 0 1 -0.062,0.0802 31.955959,31.955962 0 0 1 -0.062,0.0801 31.955959,31.955962 0 0 1 -0.062,0.0798 31.955959,31.955962 0 0 1 -0.062,0.0796 31.955959,31.955962 0 0 1 -0.063,0.0794 31.955959,31.955962 0 0 1 -0.063,0.0793 31.955959,31.955962 0 0 1 -0.064,0.079 31.955959,31.955962 0 0 1 -0.064,0.0788 31.955959,31.955962 0 0 1 -0.064,0.0786 31.955959,31.955962 0 0 1 -0.064,0.0785 31.955959,31.955962 0 0 1 -0.064,0.0782 31.955959,31.955962 0 0 1 -0.064,0.078 31.955959,31.955962 0 0 1 -0.064,0.0779 31.955959,31.955962 0 0 1 -0.065,0.0777 31.955959,31.955962 0 0 1 -0.065,0.0774 31.955959,31.955962 0 0 1 -0.065,0.0772 31.955959,31.955962 0 0 1 -0.066,0.077 31.955959,31.955962 0 0 1 -0.066,0.0768 31.955959,31.955962 0 0 1 -0.066,0.0766 31.955959,31.955962 0 0 1 -0.067,0.0764 31.955959,31.955962 0 0 1 -0.067,0.0762 31.955959,31.955962 0 0 1 -0.067,0.0759 31.955959,31.955962 0 0 1 -0.067,0.0758 31.955959,31.955962 0 0 1 -0.068,0.0755 31.955959,31.955962 0 0 1 -0.067,0.0753 31.955959,31.955962 0 0 1 -0.068,0.0751 31.955959,31.955962 0 0 1 -0.068,0.0749 31.955959,31.955962 0 0 1 -0.068,0.0747 31.955959,31.955962 0 0 1 -0.068,0.0744 31.955959,31.955962 0 0 1 -0.069,0.0743 31.955959,31.955962 0 0 1 -0.069,0.074 31.955959,31.955962 0 0 1 -0.069,0.0738 31.955959,31.955962 0 0 1 -0.069,0.0736 31.955959,31.955962 0 0 1 -0.07,0.0733 31.955959,31.955962 0 0 1 -0.07,0.0731 31.955959,31.955962 0 0 1 -0.07,0.0729 31.955959,31.955962 0 0 1 -0.071,0.0728 31.955959,31.955962 0 0 1 -0.071,0.0725 31.955959,31.955962 0 0 1 -0.071,0.0722 31.955959,31.955962 0 0 1 -0.071,0.0721 31.955959,31.955962 0 0 1 -0.071,0.0718 31.955959,31.955962 0 0 1 -0.071,0.0716 31.955959,31.955962 0 0 1 -0.071,0.0713 31.955959,31.955962 0 0 1 -0.072,0.0711 31.955959,31.955962 0 0 1 -0.072,0.0709 31.955959,31.955962 0 0 1 -0.072,0.0707 31.955959,31.955962 0 0 1 -0.073,0.0704 31.955959,31.955962 0 0 1 -0.073,0.0703 31.955959,31.955962 0 0 1 -0.073,0.07 31.955959,31.955962 0 0 1 -0.073,0.0697 31.955959,31.955962 0 0 1 -0.074,0.0696 31.955959,31.955962 0 0 1 -0.074,0.0693 31.955959,31.955962 0 0 1 -0.074,0.0691 31.955959,31.955962 0 0 1 -0.074,0.0688 31.955959,31.955962 0 0 1 -0.075,0.0686 31.955959,31.955962 0 0 1 -0.075,0.0683 31.955959,31.955962 0 0 1 -0.074,0.0682 31.955959,31.955962 0 0 1 -0.075,0.0678 31.955959,31.955962 0 0 1 -0.075,0.0677 31.955959,31.955962 0 0 1 -0.075,0.0674 31.955959,31.955962 0 0 1 -0.075,0.0672 31.955959,31.955962 0 0 1 -0.076,0.0669 31.955959,31.955962 0 0 1 -0.076,0.0667 31.955959,31.955962 0 0 1 -0.076,0.0664 31.955959,31.955962 0 0 1 -0.076,0.0661 31.955959,31.955962 0 0 1 -0.077,0.0661 31.955959,31.955962 0 0 1 -0.077,0.0656 31.955959,31.955962 0 0 1 -0.077,0.0654 31.955959,31.955962 0 0 1 -0.078,0.0653 31.955959,31.955962 0 0 1 -0.078,0.0649 31.955959,31.955962 0 0 1 -0.078,0.0648 31.955959,31.955962 0 0 1 -0.078,0.0645 31.955959,31.955962 0 0 1 -0.078,0.0642 31.955959,31.955962 0 0 1 -0.078,0.064 31.955959,31.955962 0 0 1 -0.079,0.0638 31.955959,31.955962 0 0 1 -0.079,0.0634 31.955959,31.955962 0 0 1 -0.079,0.0633 31.955959,31.955962 0 0 1 -0.079,0.0629 31.955959,31.955962 0 0 1 -0.079,0.0627 31.955959,31.955962 0 0 1 -0.08,0.0625 31.955959,31.955962 0 0 1 -0.08,0.0622 31.955959,31.955962 0 0 1 -0.08,0.062 31.955959,31.955962 0 0 1 -0.08,0.0618 31.955959,31.955962 0 0 1 -0.08,0.0614 31.955959,31.955962 0 0 1 -0.08,0.0613 31.955959,31.955962 0 0 1 -0.081,0.061 31.955959,31.955962 0 0 1 -0.081,0.0607 31.955959,31.955962 0 0 1 -0.081,0.0605 31.955959,31.955962 0 0 1 -0.081,0.0602 31.955959,31.955962 0 0 1 -0.081,0.0599 31.955959,31.955962 0 0 1 -0.082,0.0597 31.955959,31.955962 0 0 1 -0.082,0.0594 31.955959,31.955962 0 0 1 -0.082,0.0592 31.955959,31.955962 0 0 1 -0.082,0.0589 31.955959,31.955962 0 0 1 -0.082,0.0587 31.955959,31.955962 0 0 1 -0.083,0.0584 31.955959,31.955962 0 0 1 -0.083,0.0582 31.955959,31.955962 0 0 1 -0.083,0.0578 31.955959,31.955962 0 0 1 -0.083,0.0576 31.955959,31.955962 0 0 1 -0.083,0.0573 31.955959,31.955962 0 0 1 -0.083,0.057 31.955959,31.955962 0 0 1 -0.084,0.0569 31.955959,31.955962 0 0 1 -0.084,0.0566 31.955959,31.955962 0 0 1 -0.084,0.0562 31.955959,31.955962 0 0 1 -0.084,0.056 31.955959,31.955962 0 0 1 -0.084,0.0558 31.955959,31.955962 0 0 1 -0.084,0.0555 31.955959,31.955962 0 0 1 -0.085,0.0552 31.955959,31.955962 0 0 1 -0.085,0.0549 31.955959,31.955962 0 0 1 -0.085,0.0548 31.955959,31.955962 0 0 1 -0.085,0.0544 31.955959,31.955962 0 0 1 -0.085,0.0542 31.955959,31.955962 0 0 1 -0.086,0.0538 31.955959,31.955962 0 0 1 -0.086,0.0537 31.955959,31.955962 0 0 1 -0.086,0.0533 31.955959,31.955962 0 0 1 -0.086,0.053 31.955959,31.955962 0 0 1 -0.086,0.0528 31.955959,31.955962 0 0 1 -0.086,0.0525 31.955959,31.955962 0 0 1 -0.087,0.0522 31.955959,31.955962 0 0 1 -0.087,0.0519 31.955959,31.955962 0 0 1 -0.087,0.0517 31.955959,31.955962 0 0 1 -0.087,0.0515 31.955959,31.955962 0 0 1 -0.087,0.0511 31.955959,31.955962 0 0 1 -0.087,0.0509 31.955959,31.955962 0 0 1 -0.088,0.0506 31.955959,31.955962 0 0 1 -0.088,0.0503 31.955959,31.955962 0 0 1 -0.088,0.05 31.955959,31.955962 0 0 1 -0.088,0.0498 31.955959,31.955962 0 0 1 -0.088,0.0495 31.955959,31.955962 0 0 1 -0.088,0.0492 31.955959,31.955962 0 0 1 -0.089,0.0489 31.955959,31.955962 0 0 1 -0.089,0.0486 31.955959,31.955962 0 0 1 -0.089,0.0483 31.955959,31.955962 0 0 1 -0.089,0.0481 31.955959,31.955962 0 0 1 -0.089,0.0479 31.955959,31.955962 0 0 1 -0.089,0.0474 31.955959,31.955962 0 0 1 -0.089,0.0472 31.955959,31.955962 0 0 1 -0.09,0.0469 31.955959,31.955962 0 0 1 -0.09,0.0467 31.955959,31.955962 0 0 1 -0.09,0.0463 31.955959,31.955962 0 0 1 -0.09,0.046 31.955959,31.955962 0 0 1 -0.09,0.0458 31.955959,31.955962 0 0 1 -0.09,0.0456 31.955959,31.955962 0 0 1 -0.09,0.0453 31.955959,31.955962 0 0 1 -0.091,0.0449 31.955959,31.955962 0 0 1 -0.091,0.0446 31.955959,31.955962 0 0 1 -0.091,0.0444 31.955959,31.955962 0 0 1 -0.091,0.0442 31.955959,31.955962 0 0 1 -0.091,0.0438 31.955959,31.955962 0 0 1 -0.091,0.0435 31.955959,31.955962 0 0 1 -0.092,0.0432 31.955959,31.955962 0 0 1 -0.091,0.043 31.955959,31.955962 0 0 1 -0.092,0.0426 31.955959,31.955962 0 0 1 -0.092,0.0423 31.955959,31.955962 0 0 1 -0.092,0.042 31.955959,31.955962 0 0 1 -0.092,0.0418 31.955959,31.955962 0 0 1 -0.092,0.0414 31.955959,31.955962 0 0 1 -0.092,0.0412 31.955959,31.955962 0 0 1 -0.093,0.0409 31.955959,31.955962 0 0 1 -0.093,0.0406 31.955959,31.955962 0 0 1 -0.093,0.0403 31.955959,31.955962 0 0 1 -0.093,0.04 31.955959,31.955962 0 0 1 -0.093,0.0397 31.955959,31.955962 0 0 1 -0.093,0.0394 31.955959,31.955962 0 0 1 -0.093,0.0391 31.955959,31.955962 0 0 1 -0.093,0.0388 31.955959,31.955962 0 0 1 -0.093,0.0385 31.955959,31.955962 0 0 1 -0.094,0.0383 31.955959,31.955962 0 0 1 -0.094,0.0379 31.955959,31.955962 0 0 1 -0.094,0.0376 31.955959,31.955962 0 0 1 -0.094,0.0374 31.955959,31.955962 0 0 1 -0.094,0.037 31.955959,31.955962 0 0 1 -0.094,0.0366 31.955959,31.955962 0 0 1 -0.094,0.0365 31.955959,31.955962 0 0 1 -0.095,0.0362 31.955959,31.955962 0 0 1 -0.094,0.0359 31.955959,31.955962 0 0 1 -0.095,0.0355 31.955959,31.955962 0 0 1 -0.095,0.0353 31.955959,31.955962 0 0 1 -0.095,0.0349 31.955959,31.955962 0 0 1 -0.095,0.0347 31.955959,31.955962 0 0 1 -0.095,0.0344 31.955959,31.955962 0 0 1 -0.095,0.034 31.955959,31.955962 0 0 1 -0.095,0.0337 31.955959,31.955962 0 0 1 -0.095,0.0334 31.955959,31.955962 0 0 1 -0.096,0.0331 31.955959,31.955962 0 0 1 -0.096,0.0328 31.955959,31.955962 0 0 1 -0.096,0.0326 31.955959,31.955962 0 0 1 -0.096,0.0323 31.955959,31.955962 0 0 1 -0.096,0.0319 31.955959,31.955962 0 0 1 -0.096,0.0316 31.955959,31.955962 0 0 1 -0.096,0.0313 31.955959,31.955962 0 0 1 -0.096,0.031 31.955959,31.955962 0 0 1 -0.096,0.0308 31.955959,31.955962 0 0 1 -0.096,0.0304 31.955959,31.955962 0 0 1 -0.097,0.03 31.955959,31.955962 0 0 1 -0.097,0.0298 31.955959,31.955962 0 0 1 -0.097,0.0295 31.955959,31.955962 0 0 1 -0.097,0.0292 31.955959,31.955962 0 0 1 -0.097,0.0288 31.955959,31.955962 0 0 1 -0.097,0.0286 31.955959,31.955962 0 0 1 -0.097,0.0282 31.955959,31.955962 0 0 1 -0.097,0.028 31.955959,31.955962 0 0 1 -0.097,0.0276 31.955959,31.955962 0 0 1 -0.097,0.0274 31.955959,31.955962 0 0 1 -0.097,0.027 31.955959,31.955962 0 0 1 -0.098,0.0268 31.955959,31.955962 0 0 1 -0.098,0.0264 31.955959,31.955962 0 0 1 -0.098,0.026 31.955959,31.955962 0 0 1 -0.098,0.0258 31.955959,31.955962 0 0 1 -0.098,0.0254 31.955959,31.955962 0 0 1 -0.098,0.0252 31.955959,31.955962 0 0 1 -0.098,0.0249 31.955959,31.955962 0 0 1 -0.098,0.0246 31.955959,31.955962 0 0 1 -0.098,0.0242 31.955959,31.955962 0 0 1 -0.098,0.0239 31.955959,31.955962 0 0 1 -0.098,0.0236 31.955959,31.955962 0 0 1 -0.099,0.0233 31.955959,31.955962 0 0 1 -0.098,0.023 31.955959,31.955962 0 0 1 -0.099,0.0227 31.955959,31.955962 0 0 1 -0.099,0.0223 31.955959,31.955962 0 0 1 -0.099,0.022 31.955959,31.955962 0 0 1 -0.099,0.0217 31.955959,31.955962 0 0 1 -0.099,0.0215 31.955959,31.955962 0 0 1 -0.099,0.0212 31.955959,31.955962 0 0 1 -0.099,0.0208 31.955959,31.955962 0 0 1 -0.099,0.0205 31.955959,31.955962 0 0 1 -0.099,0.0202 31.955959,31.955962 0 0 1 -0.099,0.0198 31.955959,31.955962 0 0 1 -0.099,0.0196 31.955959,31.955962 0 0 1 -0.099,0.0191 31.955959,31.955962 0 0 1 -0.099,0.0189 31.955959,31.955962 0 0 1 -0.099,0.0187 31.955959,31.955962 0 0 1 -0.099,0.0183 31.955959,31.955962 0 0 1 -0.1,0.018 31.955959,31.955962 0 0 1 -0.1,0.0177 31.955959,31.955962 0 0 1 -0.1,0.0174 31.955959,31.955962 0 0 1 -0.1,0.017 31.955959,31.955962 0 0 1 -0.1,0.0169 31.955959,31.955962 0 0 1 -0.1,0.0164 31.955959,31.955962 0 0 1 -0.1,0.0161 31.955959,31.955962 0 0 1 -0.1,0.0158 31.955959,31.955962 0 0 1 -0.1,0.0155 31.955959,31.955962 0 0 1 -0.1,0.0151 31.955959,31.955962 0 0 1 -0.1001,0.0148 31.955959,31.955962 0 0 1 -0.1,0.0145 31.955959,31.955962 0 0 1 -0.1002,0.0143 31.955959,31.955962 0 0 1 -0.1001,0.0139 31.955959,31.955962 0 0 1 -0.1002,0.0135 31.955959,31.955962 0 0 1 -0.1004,0.0132 31.955959,31.955962 0 0 1 -0.1002,0.0129 31.955959,31.955962 0 0 1 -0.1003,0.0126 31.955959,31.955962 0 0 1 -0.1004,0.0123 31.955959,31.955962 0 0 1 -0.1005,0.0119 31.955959,31.955962 0 0 1 -0.1004,0.0117 31.955959,31.955962 0 0 1 -0.1005,0.0113 31.955959,31.955962 0 0 1 -0.1005,0.0111 31.955959,31.955962 0 0 1 -0.1006,0.0108 31.955959,31.955962 0 0 1 -0.1006,0.0103 31.955959,31.955962 0 0 1 -0.1006,0.0101 31.955959,31.955962 0 0 1 -0.1007,0.01 31.955959,31.955962 0 0 1 -0.1007,0.009 31.955959,31.955962 0 0 1 -0.1007,0.009 31.955959,31.955962 0 0 1 -0.1008,0.009 31.955959,31.955962 0 0 1 -0.1007,0.008 31.955959,31.955962 0 0 1 -0.1008,0.008 31.955959,31.955962 0 0 1 -0.1008,0.008 31.955959,31.955962 0 0 1 -0.1008,0.008 31.955959,31.955962 0 0 1 -0.101,0.007 31.955959,31.955962 0 0 1 -0.1008,0.007 31.955959,31.955962 0 0 1 -0.101,0.006 31.955959,31.955962 0 0 1 -0.1009,0.006 31.955959,31.955962 0 0 1 -0.1009,0.006 31.955959,31.955962 0 0 1 -0.101,0.005 31.955959,31.955962 0 0 1 -0.101,0.005 31.955959,31.955962 0 0 1 -0.1011,0.005 31.955959,31.955962 0 0 1 -0.101,0.005 31.955959,31.955962 0 0 1 -0.101,0.005 31.955959,31.955962 0 0 1 -0.101,0.004 31.955959,31.955962 0 0 1 -0.1011,0.003 31.955959,31.955962 0 0 1 -0.1011,0.003 31.955959,31.955962 0 0 1 -0.1011,0.003 31.955959,31.955962 0 0 1 -0.101,0.003 31.955959,31.955962 0 0 1 -0.1012,0.002 31.955959,31.955962 0 0 1 -0.1011,0.002 31.955959,31.955962 0 0 1 -0.1011,0.002 31.955959,31.955962 0 0 1 -0.1011,7.8e-4 31.955959,31.955962 0 0 1 -0.1011,7.9e-4 31.955959,31.955962 0 0 1 -0.1011,5.7e-4 31.955959,31.955962 0 0 1 -0.1012,5.4e-4 31.955959,31.955962 0 0 1 -0.1011,8e-5 31.955959,31.955962 0 0 1 -0.036,0 31.955959,31.955962 0 0 1 -0.1012,-2.7e-4 31.955959,31.955962 0 0 1 -0.1011,-5.7e-4 31.955959,31.955962 0 0 1 -0.1011,-7.8e-4 31.955959,31.955962 0 0 1 -0.1012,-7.9e-4 31.955959,31.955962 0 0 1 -0.1011,-0.002 31.955959,31.955962 0 0 1 -0.1011,-0.002 31.955959,31.955962 0 0 1 -0.1011,-0.002 31.955959,31.955962 0 0 1 -0.1011,-0.002 31.955959,31.955962 0 0 1 -0.101,-0.003 31.955959,31.955962 0 0 1 -0.1012,-0.003 31.955959,31.955962 0 0 1 -0.101,-0.003 31.955959,31.955962 0 0 1 -0.1011,-0.004 31.955959,31.955962 0 0 1 -0.1011,-0.004 31.955959,31.955962 0 0 1 -0.101,-0.005 31.955959,31.955962 0 0 1 -0.101,-0.005 31.955959,31.955962 0 0 1 -0.101,-0.005 31.955959,31.955962 0 0 1 -0.101,-0.005 31.955959,31.955962 0 0 1 -0.1009,-0.005 31.955959,31.955962 0 0 1 -0.101,-0.006 31.955959,31.955962 0 0 1 -0.1009,-0.006 31.955959,31.955962 0 0 1 -0.1009,-0.007 31.955959,31.955962 0 0 1 -0.101,-0.007 31.955959,31.955962 0 0 1 -0.1009,-0.007 31.955959,31.955962 0 0 1 -0.1007,-0.008 31.955959,31.955962 0 0 1 -0.1008,-0.008 31.955959,31.955962 0 0 1 -0.1008,-0.008 31.955959,31.955962 0 0 1 -0.1008,-0.009 31.955959,31.955962 0 0 1 -0.1008,-0.009 31.955959,31.955962 0 0 1 -0.1007,-0.009 31.955959,31.955962 0 0 1 -0.1006,-0.009 31.955959,31.955962 0 0 1 -0.1007,-0.01 31.955959,31.955962 0 0 1 -0.1005,-0.0101 31.955959,31.955962 0 0 1 -0.1007,-0.0105 31.955959,31.955962 0 0 1 -0.1006,-0.0108 31.955959,31.955962 0 0 1 -0.1005,-0.0111 31.955959,31.955962 0 0 1 -0.1004,-0.0115 31.955959,31.955962 0 0 1 -0.1005,-0.0118 31.955959,31.955962 0 0 1 -0.1003,-0.012 31.955959,31.955962 0 0 1 -0.1005,-0.0125 31.955959,31.955962 0 0 1 -0.1002,-0.0127 31.955959,31.955962 0 0 1 -0.1004,-0.013 31.955959,31.955962 0 0 1 -0.1002,-0.0133 31.955959,31.955962 0 0 1 -0.1002,-0.0137 31.955959,31.955962 0 0 1 -0.1001,-0.014 31.955959,31.955962 0 0 1 -0.1001,-0.0144 31.955959,31.955962 0 0 1 -0.1002,-0.0147 31.955959,31.955962 0 0 1 -0.1,-0.0149 31.955959,31.955962 0 0 1 -0.1,-0.0152 31.955959,31.955962 0 0 1 -0.1,-0.0155 31.955959,31.955962 0 0 1 -0.1,-0.0159 31.955959,31.955962 0 0 1 -0.1,-0.0162 31.955959,31.955962 0 0 1 -0.1,-0.0165 31.955959,31.955962 0 0 1 -0.1,-0.0169 31.955959,31.955962 0 0 1 -0.1,-0.0172 31.955959,31.955962 0 0 1 -0.1,-0.0174 31.955959,31.955962 0 0 1 -0.1,-0.0179 31.955959,31.955962 0 0 1 -0.1,-0.018 31.955959,31.955962 0 0 1 -0.099,-0.0185 31.955959,31.955962 0 0 1 -0.1,-0.0187 31.955959,31.955962 0 0 1 -0.099,-0.0191 31.955959,31.955962 0 0 1 -0.099,-0.0194 31.955959,31.955962 0 0 1 -0.099,-0.0196 31.955959,31.955962 0 0 1 -0.099,-0.0199 31.955959,31.955962 0 0 1 -0.099,-0.0203 31.955959,31.955962 0 0 1 -0.099,-0.0206 31.955959,31.955962 0 0 1 -0.099,-0.0209 31.955959,31.955962 0 0 1 -0.099,-0.0212 31.955959,31.955962 0 0 1 -0.099,-0.0216 31.955959,31.955962 0 0 1 -0.099,-0.0218 31.955959,31.955962 0 0 1 -0.099,-0.0222 31.955959,31.955962 0 0 1 -0.099,-0.0224 31.955959,31.955962 0 0 1 -0.099,-0.0228 31.955959,31.955962 0 0 1 -0.099,-0.0231 31.955959,31.955962 0 0 1 -0.098,-0.0234 31.955959,31.955962 0 0 1 -0.098,-0.0237 31.955959,31.955962 0 0 1 -0.098,-0.0241 31.955959,31.955962 0 0 1 -0.098,-0.0244 31.955959,31.955962 0 0 1 -0.098,-0.0247 31.955959,31.955962 0 0 1 -0.098,-0.0249 31.955959,31.955962 0 0 1 -0.098,-0.0253 31.955959,31.955962 0 0 1 -0.098,-0.0257 31.955959,31.955962 0 0 1 -0.098,-0.0259 31.955959,31.955962 0 0 1 -0.098,-0.0263 31.955959,31.955962 0 0 1 -0.098,-0.0265 31.955959,31.955962 0 0 1 -0.098,-0.0268 31.955959,31.955962 0 0 1 -0.097,-0.0271 31.955959,31.955962 0 0 1 -0.097,-0.0274 31.955959,31.955962 0 0 1 -0.097,-0.0278 31.955959,31.955962 0 0 1 -0.097,-0.028 31.955959,31.955962 0 0 1 -0.097,-0.0284 31.955959,31.955962 0 0 1 -0.097,-0.0286 31.955959,31.955962 0 0 1 -0.097,-0.029 31.955959,31.955962 0 0 1 -0.097,-0.0293 31.955959,31.955962 0 0 1 -0.097,-0.0296 31.955959,31.955962 0 0 1 -0.096,-0.0299 31.955959,31.955962 0 0 1 -0.097,-0.0302 31.955959,31.955962 0 0 1 -0.096,-0.0305 31.955959,31.955962 0 0 1 -0.096,-0.0307 31.955959,31.955962 0 0 1 -0.096,-0.0311 31.955959,31.955962 0 0 1 -0.096,-0.0314 31.955959,31.955962 0 0 1 -0.096,-0.0318 31.955959,31.955962 0 0 1 -0.096,-0.032 31.955959,31.955962 0 0 1 -0.096,-0.0324 31.955959,31.955962 0 0 1 -0.096,-0.0326 31.955959,31.955962 0 0 1 -0.096,-0.0329 31.955959,31.955962 0 0 1 -0.095,-0.0333 31.955959,31.955962 0 0 1 -0.096,-0.0336 31.955959,31.955962 0 0 1 -0.095,-0.0339 31.955959,31.955962 0 0 1 -0.095,-0.0341 31.955959,31.955962 0 0 1 -0.095,-0.0345 31.955959,31.955962 0 0 1 -0.095,-0.0348 31.955959,31.955962 0 0 1 -0.095,-0.0351 31.955959,31.955962 0 0 1 -0.095,-0.0354 31.955959,31.955962 0 0 1 -0.095,-0.0356 31.955959,31.955962 0 0 1 -0.095,-0.036 31.955959,31.955962 0 0 1 -0.094,-0.0362 31.955959,31.955962 0 0 1 -0.094,-0.0365 31.955959,31.955962 0 0 1 -0.094,-0.0369 31.955959,31.955962 0 0 1 -0.094,-0.0371 31.955959,31.955962 0 0 1 -0.094,-0.0375 31.955959,31.955962 0 0 1 -0.094,-0.0377 31.955959,31.955962 0 0 1 -0.094,-0.038 31.955959,31.955962 0 0 1 -0.094,-0.0384 31.955959,31.955962 0 0 1 -0.093,-0.0386 31.955959,31.955962 0 0 1 -0.093,-0.0389 31.955959,31.955962 0 0 1 -0.093,-0.0392 31.955959,31.955962 0 0 1 -0.093,-0.0395 31.955959,31.955962 0 0 1 -0.093,-0.0398 31.955959,31.955962 0 0 1 -0.093,-0.0402 31.955959,31.955962 0 0 1 -0.093,-0.0404 31.955959,31.955962 0 0 1 -0.093,-0.0406 31.955959,31.955962 0 0 1 -0.092,-0.041 31.955959,31.955962 0 0 1 -0.092,-0.0413 31.955959,31.955962 0 0 1 -0.092,-0.0416 31.955959,31.955962 0 0 1 -0.092,-0.0419 31.955959,31.955962 0 0 1 -0.092,-0.0422 31.955959,31.955962 0 0 1 -0.092,-0.0424 31.955959,31.955962 0 0 1 -0.092,-0.0427 31.955959,31.955962 0 0 1 -0.092,-0.0431 31.955959,31.955962 0 0 1 -0.091,-0.0434 31.955959,31.955962 0 0 1 -0.091,-0.0435 31.955959,31.955962 0 0 1 -0.091,-0.0438 31.955959,31.955962 0 0 1 -0.091,-0.0442 31.955959,31.955962 0 0 1 -0.091,-0.0445 31.955959,31.955962 0 0 1 -0.091,-0.0448 31.955959,31.955962 0 0 1 -0.091,-0.0451 31.955959,31.955962 0 0 1 -0.09,-0.0453 31.955959,31.955962 0 0 1 -0.09,-0.0456 31.955959,31.955962 0 0 1 -0.09,-0.0459 31.955959,31.955962 0 0 1 -0.09,-0.0461 31.955959,31.955962 0 0 1 -0.09,-0.0464 31.955959,31.955962 0 0 1 -0.09,-0.0467 31.955959,31.955962 0 0 1 -0.089,-0.0471 31.955959,31.955962 0 0 1 -0.09,-0.0473 31.955959,31.955962 0 0 1 -0.089,-0.0477 31.955959,31.955962 0 0 1 -0.089,-0.0478 31.955959,31.955962 0 0 1 -0.089,-0.0482 31.955959,31.955962 0 0 1 -0.089,-0.0485 31.955959,31.955962 0 0 1 -0.089,-0.0487 31.955959,31.955962 0 0 1 -0.088,-0.0491 31.955959,31.955962 0 0 1 -0.088,-0.0493 31.955959,31.955962 0 0 1 -0.088,-0.0496 31.955959,31.955962 0 0 1 -0.088,-0.0498 31.955959,31.955962 0 0 1 -0.088,-0.0501 31.955959,31.955962 0 0 1 -0.088,-0.0504 31.955959,31.955962 0 0 1 -0.088,-0.0506 31.955959,31.955962 0 0 1 -0.087,-0.0511 31.955959,31.955962 0 0 1 -0.087,-0.0512 31.955959,31.955962 0 0 1 -0.087,-0.0515 31.955959,31.955962 0 0 1 -0.087,-0.0518 31.955959,31.955962 0 0 1 -0.087,-0.052 31.955959,31.955962 0 0 1 -0.086,-0.0523 31.955959,31.955962 0 0 1 -0.086,-0.0526 31.955959,31.955962 0 0 1 -0.086,-0.0529 31.955959,31.955962 0 0 1 -0.086,-0.0531 31.955959,31.955962 0 0 1 -0.086,-0.0533 31.955959,31.955962 0 0 1 -0.086,-0.0537 31.955959,31.955962 0 0 1 -0.086,-0.054 31.955959,31.955962 0 0 1 -0.085,-0.0542 31.955959,31.955962 0 0 1 -0.085,-0.0546 31.955959,31.955962 0 0 1 -0.085,-0.0548 31.955959,31.955962 0 0 1 -0.085,-0.055 31.955959,31.955962 0 0 1 -0.085,-0.0553 31.955959,31.955962 0 0 1 -0.084,-0.0556 31.955959,31.955962 0 0 1 -0.084,-0.0558 31.955959,31.955962 0 0 1 -0.084,-0.0562 31.955959,31.955962 0 0 1 -0.084,-0.0564 31.955959,31.955962 0 0 1 -0.084,-0.0567 31.955959,31.955962 0 0 1 -0.084,-0.0569 31.955959,31.955962 0 0 1 -0.083,-0.0572 31.955959,31.955962 0 0 1 -0.083,-0.0574 31.955959,31.955962 0 0 1 -0.083,-0.0576 31.955959,31.955962 0 0 1 -0.083,-0.058 31.955959,31.955962 0 0 1 -0.083,-0.0583 31.955959,31.955962 0 0 1 -0.082,-0.0584 31.955959,31.955962 0 0 1 -0.082,-0.0588 31.955959,31.955962 0 0 1 -0.082,-0.059 31.955959,31.955962 0 0 1 -0.082,-0.0593 31.955959,31.955962 0 0 1 -0.082,-0.0595 31.955959,31.955962 0 0 1 -0.082,-0.0598 31.955959,31.955962 0 0 1 -0.081,-0.0601 31.955959,31.955962 0 0 1 -0.081,-0.0603 31.955959,31.955962 0 0 1 -0.081,-0.0605 31.955959,31.955962 0 0 1 -0.081,-0.0608 31.955959,31.955962 0 0 1 -0.081,-0.061 31.955959,31.955962 0 0 1 -0.08,-0.0613 31.955959,31.955962 0 0 1 -0.08,-0.0616 31.955959,31.955962 0 0 1 -0.08,-0.0618 31.955959,31.955962 0 0 1 -0.08,-0.062 31.955959,31.955962 0 0 1 -0.08,-0.0623 31.955959,31.955962 0 0 1 -0.079,-0.0626 31.955959,31.955962 0 0 1 -0.079,-0.0628 31.955959,31.955962 0 0 1 -0.079,-0.0631 31.955959,31.955962 0 0 1 -0.079,-0.0633 31.955959,31.955962 0 0 1 -0.079,-0.0636 31.955959,31.955962 0 0 1 -0.078,-0.0639 31.955959,31.955962 0 0 1 -0.078,-0.0641 31.955959,31.955962 0 0 1 -0.078,-0.0642 31.955959,31.955962 0 0 1 -0.078,-0.0646 31.955959,31.955962 0 0 1 -0.078,-0.0648 31.955959,31.955962 0 0 1 -0.078,-0.0651 31.955959,31.955962 0 0 1 -0.078,-0.0653 31.955959,31.955962 0 0 1 -0.077,-0.0656 31.955959,31.955962 0 0 1 -0.077,-0.0657 31.955959,31.955962 0 0 1 -0.077,-0.066 31.955959,31.955962 0 0 1 -0.076,-0.0663 31.955959,31.955962 0 0 1 -0.076,-0.0665 31.955959,31.955962 0 0 1 -0.076,-0.0668 31.955959,31.955962 0 0 1 -0.075,-0.067 31.955959,31.955962 0 0 1 -0.075,-0.0672 31.955959,31.955962 0 0 1 -0.075,-0.0675 31.955959,31.955962 0 0 1 -0.075,-0.0677 31.955959,31.955962 0 0 1 -0.074,-0.068 31.955959,31.955962 0 0 1 -0.075,-0.0682 31.955959,31.955962 0 0 1 -0.074,-0.0684 31.955959,31.955962 0 0 1 -0.074,-0.0687 31.955959,31.955962 0 0 1 -0.074,-0.0689 31.955959,31.955962 0 0 1 -0.074,-0.0692 31.955959,31.955962 0 0 1 -0.074,-0.0693 31.955959,31.955962 0 0 1 -0.074,-0.0696 31.955959,31.955962 0 0 1 -0.073,-0.0698 31.955959,31.955962 0 0 1 -0.073,-0.07 31.955959,31.955962 0 0 1 -0.073,-0.0703 31.955959,31.955962 0 0 1 -0.072,-0.0705 31.955959,31.955962 0 0 1 -0.072,-0.0708 31.955959,31.955962 0 0 1 -0.072,-0.0709 31.955959,31.955962 0 0 1 -0.071,-0.0712 31.955959,31.955962 0 0 1 -0.053,-0.0536 l -0.027,-0.0268 a 31.955959,31.955962 0 0 1 -0.063,-0.0627 31.955959,31.955962 0 0 1 -0.071,-0.0718 31.955959,31.955962 0 0 1 -0.071,-0.0722 31.955959,31.955962 0 0 1 -0.071,-0.0723 31.955959,31.955962 0 0 1 -0.071,-0.0726 31.955959,31.955962 0 0 1 -0.07,-0.0728 31.955959,31.955962 0 0 1 -0.07,-0.073 31.955959,31.955962 0 0 1 -0.07,-0.0732 31.955959,31.955962 0 0 1 -0.069,-0.0735 31.955959,31.955962 0 0 1 -0.069,-0.0737 31.955959,31.955962 0 0 1 -0.069,-0.0738 31.955959,31.955962 0 0 1 -0.069,-0.0742 31.955959,31.955962 0 0 1 -0.069,-0.0743 31.955959,31.955962 0 0 1 -0.068,-0.0746 31.955959,31.955962 0 0 1 -0.068,-0.0747 31.955959,31.955962 0 0 1 -0.068,-0.075 31.955959,31.955962 0 0 1 -0.067,-0.0752 31.955959,31.955962 0 0 1 -0.068,-0.0754 31.955959,31.955962 0 0 1 -0.067,-0.0756 31.955959,31.955962 0 0 1 -0.067,-0.0759 31.955959,31.955962 0 0 1 -0.067,-0.076 31.955959,31.955962 0 0 1 -0.067,-0.0762 31.955959,31.955962 0 0 1 -0.066,-0.0765 31.955959,31.955962 0 0 1 -0.066,-0.0766 31.955959,31.955962 0 0 1 -0.066,-0.0769 31.955959,31.955962 0 0 1 -0.065,-0.0771 31.955959,31.955962 0 0 1 -0.065,-0.0772 31.955959,31.955962 0 0 1 -0.065,-0.0775 31.955959,31.955962 0 0 1 -0.065,-0.0777 31.955959,31.955962 0 0 1 -0.064,-0.0779 31.955959,31.955962 0 0 1 -0.064,-0.078 31.955959,31.955962 0 0 1 -0.064,-0.0784 31.955959,31.955962 0 0 1 -0.064,-0.0785 31.955959,31.955962 0 0 1 -0.064,-0.0788 31.955959,31.955962 0 0 1 -0.064,-0.0789 31.955959,31.955962 0 0 1 -0.063,-0.0791 31.955959,31.955962 0 0 1 -0.063,-0.0794 31.955959,31.955962 0 0 1 -0.063,-0.0795 31.955959,31.955962 0 0 1 -0.062,-0.0797 31.955959,31.955962 0 0 1 -0.062,-0.0798 31.955959,31.955962 0 0 1 -0.062,-0.0802 31.955959,31.955962 0 0 1 -0.061,-0.0803 31.955959,31.955962 0 0 1 -0.061,-0.0804 31.955959,31.955962 0 0 1 -0.061,-0.0807 31.955959,31.955962 0 0 1 -0.06,-0.0809 31.955959,31.955962 0 0 1 -0.06,-0.0811 31.955959,31.955962 0 0 1 -0.06,-0.0812 31.955959,31.955962 0 0 1 -0.06,-0.0814 31.955959,31.955962 0 0 1 -0.06,-0.0817 31.955959,31.955962 0 0 1 -0.06,-0.0819 31.955959,31.955962 0 0 1 -0.059,-0.082 31.955959,31.955962 0 0 1 -0.059,-0.0822 31.955959,31.955962 0 0 1 -0.059,-0.0824 31.955959,31.955962 0 0 1 -0.058,-0.0826 31.955959,31.955962 0 0 1 -0.058,-0.0827 31.955959,31.955962 0 0 1 -0.058,-0.0829 31.955959,31.955962 0 0 1 -0.057,-0.0832 31.955959,31.955962 0 0 1 -0.057,-0.0833 31.955959,31.955962 0 0 1 -0.057,-0.0834 31.955959,31.955962 0 0 1 -0.057,-0.0837 31.955959,31.955962 0 0 1 -0.056,-0.0838 31.955959,31.955962 0 0 1 -0.057,-0.0841 31.955959,31.955962 0 0 1 -0.056,-0.0842 31.955959,31.955962 0 0 1 -0.056,-0.0844 31.955959,31.955962 0 0 1 -0.056,-0.0845 31.955959,31.955962 0 0 1 -0.055,-0.0848 31.955959,31.955962 0 0 1 -0.055,-0.0849 31.955959,31.955962 0 0 1 -0.055,-0.085 31.955959,31.955962 0 0 1 -0.054,-0.0853 31.955959,31.955962 0 0 1 -0.054,-0.0854 31.955959,31.955962 0 0 1 -0.053,-0.0856 31.955959,31.955962 0 0 1 -0.053,-0.0858 31.955959,31.955962 0 0 1 -0.053,-0.086 31.955959,31.955962 0 0 1 -0.053,-0.086 31.955959,31.955962 0 0 1 -0.053,-0.0863 31.955959,31.955962 0 0 1 -0.052,-0.0865 31.955959,31.955962 0 0 1 -0.053,-0.0866 31.955959,31.955962 0 0 1 -0.052,-0.0867 31.955959,31.955962 0 0 1 -0.052,-0.0869 31.955959,31.955962 0 0 1 -0.051,-0.0872 31.955959,31.955962 0 0 1 -0.051,-0.0873 31.955959,31.955962 0 0 1 -0.051,-0.0873 31.955959,31.955962 0 0 1 -0.051,-0.0876 31.955959,31.955962 0 0 1 -0.05,-0.0878 31.955959,31.955962 0 0 1 -0.05,-0.0879 31.955959,31.955962 0 0 1 -0.049,-0.088 31.955959,31.955962 0 0 1 -0.05,-0.0882 31.955959,31.955962 0 0 1 -0.049,-0.0883 31.955959,31.955962 0 0 1 -0.049,-0.0886 31.955959,31.955962 0 0 1 -0.049,-0.0887 31.955959,31.955962 0 0 1 -0.049,-0.0888 31.955959,31.955962 0 0 1 -0.048,-0.0889 31.955959,31.955962 0 0 1 -0.048,-0.0891 31.955959,31.955962 0 0 1 -0.047,-0.0893 31.955959,31.955962 0 0 1 -0.047,-0.0895 31.955959,31.955962 0 0 1 -0.047,-0.0895 31.955959,31.955962 0 0 1 -0.047,-0.0897 31.955959,31.955962 0 0 1 -0.046,-0.0899 31.955959,31.955962 0 0 1 -0.046,-0.09 31.955959,31.955962 0 0 1 -0.046,-0.0902 31.955959,31.955962 0 0 1 -0.045,-0.0903 31.955959,31.955962 0 0 1 -0.045,-0.0904 31.955959,31.955962 0 0 1 -0.045,-0.0906 31.955959,31.955962 0 0 1 -0.045,-0.0908 31.955959,31.955962 0 0 1 -0.045,-0.0909 31.955959,31.955962 0 0 1 -0.044,-0.091 31.955959,31.955962 0 0 1 -0.044,-0.0911 31.955959,31.955962 0 0 1 -0.043,-0.0913 31.955959,31.955962 0 0 1 -0.043,-0.0915 31.955959,31.955962 0 0 1 -0.042,-0.0915 31.955959,31.955962 0 0 1 -0.043,-0.0918 31.955959,31.955962 0 0 1 -0.042,-0.0918 31.955959,31.955962 0 0 1 -0.042,-0.0919 31.955959,31.955962 0 0 1 -0.042,-0.0921 31.955959,31.955962 0 0 1 -0.042,-0.0922 31.955959,31.955962 0 0 1 -0.041,-0.0924 31.955959,31.955962 0 0 1 -0.041,-0.0926 31.955959,31.955962 0 0 1 -0.041,-0.0926 31.955959,31.955962 0 0 1 -0.041,-0.0927 31.955959,31.955962 0 0 1 -0.04,-0.0929 31.955959,31.955962 0 0 1 -0.04,-0.093 31.955959,31.955962 0 0 1 -0.039,-0.0931 31.955959,31.955962 0 0 1 -0.039,-0.0933 31.955959,31.955962 0 0 1 -0.038,-0.0934 31.955959,31.955962 0 0 1 -0.038,-0.0934 31.955959,31.955962 0 0 1 -0.038,-0.0936 31.955959,31.955962 0 0 1 -0.038,-0.0938 31.955959,31.955962 0 0 1 -0.038,-0.0939 31.955959,31.955962 0 0 1 -0.038,-0.094 31.955959,31.955962 0 0 1 -0.037,-0.0941 31.955959,31.955962 0 0 1 -0.036,-0.0942 31.955959,31.955962 0 0 1 -0.037,-0.0943 31.955959,31.955962 0 0 1 -0.036,-0.0945 31.955959,31.955962 0 0 1 -0.036,-0.0945 31.955959,31.955962 0 0 1 -0.035,-0.0947 31.955959,31.955962 0 0 1 -0.035,-0.0949 31.955959,31.955962 0 0 1 -0.035,-0.0949 31.955959,31.955962 0 0 1 -0.034,-0.095 31.955959,31.955962 0 0 1 -0.035,-0.0951 31.955959,31.955962 0 0 1 -0.034,-0.0952 31.955959,31.955962 0 0 1 -0.034,-0.0954 31.955959,31.955962 0 0 1 -0.034,-0.0954 31.955959,31.955962 0 0 1 -0.033,-0.0956 31.955959,31.955962 0 0 1 -0.032,-0.0956 31.955959,31.955962 0 0 1 -0.032,-0.0957 31.955959,31.955962 0 0 1 -0.033,-0.0959 31.955959,31.955962 0 0 1 -0.032,-0.0959 31.955959,31.955962 0 0 1 -0.031,-0.0961 31.955959,31.955962 0 0 1 -0.031,-0.0962 31.955959,31.955962 0 0 1 -0.031,-0.0962 31.955959,31.955962 0 0 1 -0.031,-0.0964 31.955959,31.955962 0 0 1 -0.03,-0.0965 31.955959,31.955962 0 0 1 -0.031,-0.0965 31.955959,31.955962 0 0 1 -0.03,-0.0966 31.955959,31.955962 0 0 1 -0.03,-0.0967 31.955959,31.955962 0 0 1 -0.029,-0.0969 31.955959,31.955962 0 0 1 -0.029,-0.0969 31.955959,31.955962 0 0 1 -0.028,-0.097 31.955959,31.955962 0 0 1 -0.028,-0.0972 31.955959,31.955962 0 0 1 -0.028,-0.0971 31.955959,31.955962 0 0 1 -0.028,-0.0973 31.955959,31.955962 0 0 1 -0.027,-0.0973 31.955959,31.955962 0 0 1 -0.027,-0.0974 31.955959,31.955962 0 0 1 -0.027,-0.0976 31.955959,31.955962 0 0 1 -0.026,-0.0976 31.955959,31.955962 0 0 1 -0.027,-0.0977 31.955959,31.955962 0 0 1 -0.026,-0.0978 31.955959,31.955962 0 0 1 -0.026,-0.0979 31.955959,31.955962 0 0 1 -0.025,-0.098 31.955959,31.955962 0 0 1 -0.025,-0.0979 31.955959,31.955962 0 0 1 -0.024,-0.0981 31.955959,31.955962 0 0 1 -0.024,-0.0982 31.955959,31.955962 0 0 1 -0.024,-0.0982 31.955959,31.955962 0 0 1 -0.023,-0.0984 31.955959,31.955962 0 0 1 -0.024,-0.0984 31.955959,31.955962 0 0 1 -0.023,-0.0985 31.955959,31.955962 0 0 1 -0.023,-0.0986 31.955959,31.955962 0 0 1 -0.022,-0.0986 31.955959,31.955962 0 0 1 -0.022,-0.0987 31.955959,31.955962 0 0 1 -0.022,-0.0987 31.955959,31.955962 0 0 1 -0.022,-0.0988 31.955959,31.955962 0 0 1 -0.021,-0.0989 31.955959,31.955962 0 0 1 -0.02,-0.0989 31.955959,31.955962 0 0 1 -0.02,-0.0991 31.955959,31.955962 0 0 1 -0.02,-0.0991 31.955959,31.955962 0 0 1 -0.02,-0.0991 31.955959,31.955962 0 0 1 -0.02,-0.0993 31.955959,31.955962 0 0 1 -0.02,-0.0993 31.955959,31.955962 0 0 1 -0.019,-0.0994 31.955959,31.955962 0 0 1 -0.019,-0.0994 31.955959,31.955962 0 0 1 -0.018,-0.0994 31.955959,31.955962 0 0 1 -0.018,-0.0996 31.955959,31.955962 0 0 1 -0.018,-0.0995 31.955959,31.955962 0 0 1 -0.017,-0.0996 31.955959,31.955962 0 0 1 -0.017,-0.0997 31.955959,31.955962 0 0 1 -0.017,-0.0997 31.955959,31.955962 0 0 1 -0.016,-0.0998 31.955959,31.955962 0 0 1 -0.016,-0.0999 31.955959,31.955962 0 0 1 -0.016,-0.0999 31.955959,31.955962 0 0 1 -0.016,-0.0999 31.955959,31.955962 0 0 1 -0.015,-0.1 31.955959,31.955962 0 0 1 -0.015,-0.10008 31.955959,31.955962 0 0 1 -0.014,-0.10006 31.955959,31.955962 0 0 1 -0.014,-0.10016 31.955959,31.955962 0 0 1 -0.013,-0.10016 31.955959,31.955962 0 0 1 -0.013,-0.10024 31.955959,31.955962 0 0 1 -0.013,-0.10024 31.955959,31.955962 0 0 1 -0.013,-0.10026 31.955959,31.955962 0 0 1 -0.012,-0.10033 31.955959,31.955962 0 0 1 -0.013,-0.10042 31.955959,31.955962 0 0 1 -0.012,-0.10042 31.955959,31.955962 0 0 1 -0.012,-0.10042 31.955959,31.955962 0 0 1 -0.011,-0.10051 31.955959,31.955962 0 0 1 -0.011,-0.10051 31.955959,31.955962 0 0 1 -0.011,-0.1006 31.955959,31.955962 0 0 1 -0.01,-0.10059 31.955959,31.955962 0 0 1 -0.01,-0.10061 31.955959,31.955962 0 0 1 -0.01,-0.10068 31.955959,31.955962 0 0 1 -0.01,-0.10069 31.955959,31.955962 0 0 1 -0.01,-0.10068 31.955959,31.955962 0 0 1 -0.01,-0.10078 31.955959,31.955962 0 0 1 -0.01,-0.10077 31.955959,31.955962 0 0 1 -0.01,-0.10078 31.955959,31.955962 0 0 1 -0.01,-0.10087 31.955959,31.955962 0 0 1 -0.01,-0.10086 31.955959,31.955962 0 0 1 -0.01,-0.10087 31.955959,31.955962 0 0 1 -0.01,-0.10086 31.955959,31.955962 0 0 1 -0.01,-0.10095 31.955959,31.955962 0 0 1 -0.01,-0.10086 31.955959,31.955962 0 0 1 -0.01,-0.10104 31.955959,31.955962 0 0 1 -0.01,-0.10096 31.955959,31.955962 0 0 1 -0.01,-0.10095 31.955959,31.955962 0 0 1 -0.01,-0.10104 31.955959,31.955962 0 0 1 -0.01,-0.10104 31.955959,31.955962 0 0 1 -0.01,-0.10104 31.955959,31.955962 0 0 1 -0.01,-0.10104 31.955959,31.955962 0 0 1 -0.01,-0.10104 31.955959,31.955962 0 0 1 -0.01,-0.10104 31.955959,31.955962 0 0 1 -0.01,-0.10113 31.955959,31.955962 0 0 1 0,-0.10105 31.955959,31.955962 0 0 1 0,-0.10112 31.955959,31.955962 0 0 1 0,-0.10113 31.955959,31.955962 0 0 1 0,-0.10113 31.955959,31.955962 0 0 1 0,-0.10113 31.955959,31.955962 0 0 1 0,-0.10113 31.955959,31.955962 0 0 1 0,-0.10113 31.955959,31.955962 0 0 1 -4e-4,-0.10113 31.955959,31.955962 0 0 1 -2e-4,-0.10113 31.955959,31.955962 0 0 1 0,-0.036 31.955959,31.955962 0 0 1 2e-4,-0.10113 31.955959,31.955962 0 0 1 0,-0.10113 31.955959,31.955962 0 0 1 0,-0.10112 31.955959,31.955962 0 0 1 0,-0.10114 31.955959,31.955962 0 0 1 0,-0.10112 31.955959,31.955962 0 0 1 0,-0.10113 31.955959,31.955962 0 0 1 0,-0.10104 31.955959,31.955962 0 0 1 0,-0.10114 31.955959,31.955962 0 0 1 0.01,-0.10112 31.955959,31.955962 0 0 1 0.01,-0.10104 31.955959,31.955962 0 0 1 0.01,-0.10104 31.955959,31.955962 0 0 1 0.01,-0.10113 31.955959,31.955962 0 0 1 0.01,-0.10104 31.955959,31.955962 0 0 1 0.01,-0.10095 31.955959,31.955962 0 0 1 0.01,-0.10104 31.955959,31.955962 0 0 1 0.01,-0.10104 31.955959,31.955962 0 0 1 0.01,-0.10096 31.955959,31.955962 0 0 1 0.01,-0.10095 31.955959,31.955962 0 0 1 0.01,-0.10096 31.955959,31.955962 0 0 1 0.01,-0.10094 31.955959,31.955962 0 0 1 0.01,-0.10095 31.955959,31.955962 0 0 1 0.01,-0.10087 31.955959,31.955962 0 0 1 0.01,-0.10087 31.955959,31.955962 0 0 1 0.01,-0.10086 31.955959,31.955962 0 0 1 0.01,-0.10077 31.955959,31.955962 0 0 1 0.01,-0.10078 31.955959,31.955962 0 0 1 0.01,-0.10077 31.955959,31.955962 0 0 1 0.01,-0.10078 31.955959,31.955962 0 0 1 0.01,-0.10069 31.955959,31.955962 0 0 1 0.01,-0.10069 31.955959,31.955962 0 0 1 0.01,-0.10059 31.955959,31.955962 0 0 1 0.01,-0.10069 31.955959,31.955962 0 0 1 0.01,-0.10051 31.955959,31.955962 0 0 1 0.011,-0.10059 31.955959,31.955962 0 0 1 0.012,-0.10051 31.955959,31.955962 0 0 1 0.012,-0.10052 31.955959,31.955962 0 0 1 0.012,-0.10042 31.955959,31.955962 0 0 1 0.012,-0.10042 31.955959,31.955962 0 0 1 0.013,-0.10033 31.955959,31.955962 0 0 1 0.012,-0.10033 31.955959,31.955962 0 0 1 0.013,-0.10026 31.955959,31.955962 0 0 1 0.013,-0.10024 31.955959,31.955962 0 0 1 0.013,-0.10024 31.955959,31.955962 0 0 1 0.013,-0.10016 31.955959,31.955962 0 0 1 0.014,-0.10007 31.955959,31.955962 0 0 1 0.015,-0.10007 31.955959,31.955962 0 0 1 0.015,-0.10006 31.955959,31.955962 0 0 1 0.016,-0.1 31.955959,31.955962 0 0 1 0.016,-0.0999 31.955959,31.955962 0 0 1 0.016,-0.0999 31.955959,31.955962 0 0 1 0.016,-0.0998 31.955959,31.955962 0 0 1 0.016,-0.0998 31.955959,31.955962 0 0 1 0.017,-0.0997 31.955959,31.955962 0 0 1 0.017,-0.0996 31.955959,31.955962 0 0 1 0.018,-0.0996 31.955959,31.955962 0 0 1 0.018,-0.0995 31.955959,31.955962 0 0 1 0.018,-0.0995 31.955959,31.955962 0 0 1 0.018,-0.0994 31.955959,31.955962 0 0 1 0.019,-0.0994 31.955959,31.955962 0 0 1 0.019,-0.0993 31.955959,31.955962 0 0 1 0.02,-0.0993 31.955959,31.955962 0 0 1 0.02,-0.0992 31.955959,31.955962 0 0 1 0.02,-0.0992 31.955959,31.955962 0 0 1 0.02,-0.0991 31.955959,31.955962 0 0 1 0.02,-0.099 31.955959,31.955962 0 0 1 0.021,-0.0989 31.955959,31.955962 0 0 1 0.021,-0.0988 31.955959,31.955962 0 0 1 0.022,-0.0988 31.955959,31.955962 0 0 1 0.022,-0.0987 31.955959,31.955962 0 0 1 0.022,-0.0987 31.955959,31.955962 0 0 1 0.022,-0.0987 31.955959,31.955962 0 0 1 0.023,-0.0985 31.955959,31.955962 0 0 1 0.023,-0.0985 31.955959,31.955962 0 0 1 0.023,-0.0984 31.955959,31.955962 0 0 1 0.024,-0.0983 31.955959,31.955962 0 0 1 0.024,-0.0982 31.955959,31.955962 0 0 1 0.024,-0.0981 31.955959,31.955962 0 0 1 0.024,-0.0981 31.955959,31.955962 0 0 1 0.025,-0.098 31.955959,31.955962 0 0 1 0.025,-0.0979 31.955959,31.955962 0 0 1 0.026,-0.0979 31.955959,31.955962 0 0 1 0.026,-0.0978 31.955959,31.955962 0 0 1 0.026,-0.0976 31.955959,31.955962 0 0 1 0.027,-0.0976 31.955959,31.955962 0 0 1 0.027,-0.0975 31.955959,31.955962 0 0 1 0.028,-0.0974 31.955959,31.955962 0 0 1 0.027,-0.0974 31.955959,31.955962 0 0 1 0.028,-0.0972 31.955959,31.955962 0 0 1 0.028,-0.0971 31.955959,31.955962 0 0 1 0.028,-0.0971 31.955959,31.955962 0 0 1 0.028,-0.097 31.955959,31.955962 0 0 1 0.029,-0.0969 31.955959,31.955962 0 0 1 0.029,-0.0968 31.955959,31.955962 0 0 1 0.03,-0.0967 31.955959,31.955962 0 0 1 0.03,-0.0966 31.955959,31.955962 0 0 1 0.031,-0.0964 31.955959,31.955962 0 0 1 0.031,-0.0964 31.955959,31.955962 0 0 1 0.031,-0.0964 31.955959,31.955962 0 0 1 0.031,-0.0962 31.955959,31.955962 0 0 1 0.031,-0.0961 31.955959,31.955962 0 0 1 0.032,-0.0961 31.955959,31.955962 0 0 1 0.032,-0.0959 31.955959,31.955962 0 0 1 0.032,-0.0958 31.955959,31.955962 0 0 1 0.032,-0.0956 31.955959,31.955962 0 0 1 0.033,-0.0957 31.955959,31.955962 0 0 1 0.033,-0.0955 31.955959,31.955962 0 0 1 0.034,-0.0955 31.955959,31.955962 0 0 1 0.034,-0.0953 31.955959,31.955962 0 0 1 0.035,-0.0951 31.955959,31.955962 0 0 1 0.034,-0.0951 31.955959,31.955962 0 0 1 0.034,-0.0949 31.955959,31.955962 0 0 1 0.035,-0.0948 31.955959,31.955962 0 0 1 0.035,-0.0948 31.955959,31.955962 0 0 1 0.035,-0.0947 31.955959,31.955962 0 0 1 0.036,-0.0945 31.955959,31.955962 0 0 1 0.037,-0.0944 31.955959,31.955962 0 0 1 0.036,-0.0943 31.955959,31.955962 0 0 1 0.037,-0.0941 31.955959,31.955962 0 0 1 0.037,-0.0941 31.955959,31.955962 0 0 1 0.038,-0.094 31.955959,31.955962 0 0 1 0.038,-0.0938 31.955959,31.955962 0 0 1 0.038,-0.0937 31.955959,31.955962 0 0 1 0.039,-0.0936 31.955959,31.955962 0 0 1 0.038,-0.0935 31.955959,31.955962 0 0 1 0.038,-0.0933 31.955959,31.955962 0 0 1 0.039,-0.0932 31.955959,31.955962 0 0 1 0.039,-0.0931 31.955959,31.955962 0 0 1 0.04,-0.093 31.955959,31.955962 0 0 1 0.04,-0.0928 31.955959,31.955962 0 0 1 0.041,-0.0927 31.955959,31.955962 0 0 1 0.041,-0.0925 31.955959,31.955962 0 0 1 0.041,-0.0925 31.955959,31.955962 0 0 1 0.041,-0.0923 31.955959,31.955962 0 0 1 0.042,-0.0922 31.955959,31.955962 0 0 1 0.042,-0.0921 31.955959,31.955962 0 0 1 0.042,-0.0919 31.955959,31.955962 0 0 1 0.042,-0.0918 31.955959,31.955962 0 0 1 0.043,-0.0917 31.955959,31.955962 0 0 1 0.043,-0.0915 31.955959,31.955962 0 0 1 0.043,-0.0914 31.955959,31.955962 0 0 1 0.043,-0.0912 31.955959,31.955962 0 0 1 0.044,-0.0911 31.955959,31.955962 0 0 1 0.044,-0.091 31.955959,31.955962 0 0 1 0.045,-0.0908 31.955959,31.955962 0 0 1 0.045,-0.0907 31.955959,31.955962 0 0 1 0.045,-0.0906 31.955959,31.955962 0 0 1 0.046,-0.0904 31.955959,31.955962 0 0 1 0.046,-0.0902 31.955959,31.955962 0 0 1 0.045,-0.0902 31.955959,31.955962 0 0 1 0.046,-0.0899 31.955959,31.955962 0 0 1 0.047,-0.0898 31.955959,31.955962 0 0 1 0.047,-0.0897 31.955959,31.955962 0 0 1 0.047,-0.0895 31.955959,31.955962 0 0 1 0.047,-0.0894 31.955959,31.955962 0 0 1 0.048,-0.0892 31.955959,31.955962 0 0 1 0.048,-0.0891 31.955959,31.955962 0 0 1 0.048,-0.0889 31.955959,31.955962 0 0 1 0.049,-0.0888 31.955959,31.955962 0 0 1 0.049,-0.0886 31.955959,31.955962 0 0 1 0.049,-0.0885 31.955959,31.955962 0 0 1 0.049,-0.0883 31.955959,31.955962 0 0 1 0.049,-0.0881 31.955959,31.955962 0 0 1 0.049,-0.0881 31.955959,31.955962 0 0 1 0.05,-0.0878 31.955959,31.955962 0 0 1 0.05,-0.0877 31.955959,31.955962 0 0 1 0.051,-0.0875 31.955959,31.955962 0 0 1 0.051,-0.0874 31.955959,31.955962 0 0 1 0.051,-0.0872 31.955959,31.955962 0 0 1 0.052,-0.087 31.955959,31.955962 0 0 1 0.052,-0.0869 31.955959,31.955962 0 0 1 0.052,-0.0867 31.955959,31.955962 0 0 1 0.052,-0.0866 31.955959,31.955962 0 0 1 0.053,-0.0864 31.955959,31.955962 0 0 1 0.053,-0.0862 31.955959,31.955962 0 0 1 0.053,-0.086 31.955959,31.955962 0 0 1 0.053,-0.0858 31.955959,31.955962 0 0 1 0.053,-0.0858 31.955959,31.955962 0 0 1 0.054,-0.0855 31.955959,31.955962 0 0 1 0.054,-0.0854 31.955959,31.955962 0 0 1 0.054,-0.0852 31.955959,31.955962 0 0 1 0.055,-0.0849 31.955959,31.955962 0 0 1 0.055,-0.0849 31.955959,31.955962 0 0 1 0.055,-0.0847 31.955959,31.955962 0 0 1 0.056,-0.0845 31.955959,31.955962 0 0 1 0.056,-0.0842 31.955959,31.955962 0 0 1 0.056,-0.0842 31.955959,31.955962 0 0 1 0.056,-0.084 31.955959,31.955962 0 0 1 0.056,-0.0838 31.955959,31.955962 0 0 1 0.057,-0.0835 31.955959,31.955962 0 0 1 0.057,-0.0834 31.955959,31.955962 0 0 1 0.057,-0.0832 31.955959,31.955962 0 0 1 0.058,-0.0831 31.955959,31.955962 0 0 1 0.058,-0.0829 31.955959,31.955962 0 0 1 0.058,-0.0827 31.955959,31.955962 0 0 1 0.059,-0.0825 31.955959,31.955962 0 0 1 0.059,-0.0823 31.955959,31.955962 0 0 1 0.059,-0.0821 31.955959,31.955962 0 0 1 0.06,-0.082 31.955959,31.955962 0 0 1 0.06,-0.0818 31.955959,31.955962 0 0 1 0.06,-0.0816 31.955959,31.955962 0 0 1 0.06,-0.0814 31.955959,31.955962 0 0 1 0.06,-0.0811 31.955959,31.955962 0 0 1 0.06,-0.081 31.955959,31.955962 0 0 1 0.06,-0.0808 31.955959,31.955962 0 0 1 0.061,-0.0806 31.955959,31.955962 0 0 1 0.061,-0.0804 31.955959,31.955962 0 0 1 0.062,-0.0802 31.955959,31.955962 0 0 1 0.062,-0.0801 31.955959,31.955962 0 0 1 0.062,-0.0798 31.955959,31.955962 0 0 1 0.062,-0.0797 31.955959,31.955962 0 0 1 0.063,-0.0794 31.955959,31.955962 0 0 1 0.063,-0.0793 31.955959,31.955962 0 0 1 0.063,-0.079 31.955959,31.955962 0 0 1 0.064,-0.0789 31.955959,31.955962 0 0 1 0.064,-0.0786 31.955959,31.955962 0 0 1 0.064,-0.0785 31.955959,31.955962 0 0 1 0.064,-0.0782 31.955959,31.955962 0 0 1 0.064,-0.078 31.955959,31.955962 0 0 1 0.064,-0.0779 31.955959,31.955962 0 0 1 0.065,-0.0776 31.955959,31.955962 0 0 1 0.065,-0.0774 31.955959,31.955962 0 0 1 0.065,-0.0772 31.955959,31.955962 0 0 1 0.066,-0.077 31.955959,31.955962 0 0 1 0.066,-0.0768 31.955959,31.955962 0 0 1 0.066,-0.0765 31.955959,31.955962 0 0 1 0.066,-0.0764 31.955959,31.955962 0 0 1 0.067,-0.0762 31.955959,31.955962 0 0 1 0.067,-0.0759 31.955959,31.955962 0 0 1 0.067,-0.0758 31.955959,31.955962 0 0 1 0.068,-0.0755 31.955959,31.955962 0 0 1 0.067,-0.0754 31.955959,31.955962 0 0 1 0.068,-0.0751 31.955959,31.955962 0 0 1 0.068,-0.0749 31.955959,31.955962 0 0 1 0.068,-0.0747 31.955959,31.955962 0 0 1 0.068,-0.0744 31.955959,31.955962 0 0 1 0.068,-0.0743 31.955959,31.955962 0 0 1 0.069,-0.074 31.955959,31.955962 0 0 1 0.069,-0.0738 31.955959,31.955962 0 0 1 0.069,-0.0736 31.955959,31.955962 0 0 1 0.07,-0.0733 31.955959,31.955962 0 0 1 0.07,-0.0731 31.955959,31.955962 0 0 1 0.07,-0.0729 31.955959,31.955962 0 0 1 0.071,-0.0728 31.955959,31.955962 0 0 1 0.071,-0.0725 31.955959,31.955962 0 0 1 0.071,-0.0722 31.955959,31.955962 0 0 1 0.071,-0.0721 31.955959,31.955962 0 0 1 0.071,-0.0718 31.955959,31.955962 0 0 1 0.071,-0.0716 z" />
      <path
         style="opacity:0.52;fill:#1a1a1a;stroke-width:0.264583"
         d="m -9244.7127,-355.99286 c 9.0771,-0.10172 17.3033,1.51922 23.9282,5.58675 15.2316,9.35165 27.0139,18.65308 37.8163,26.74875 0.4845,0.36306 0.9611,0.71522 1.4418,1.07332 -15.7324,11.71916 -29.5931,20.73122 -49.3432,23.33139 -22.3337,2.94031 -55.6108,-6.55406 -81.8834,-16.08377 -0.4287,0.20002 11.2075,0.0929 9.8024,0.4743 -2.7513,-5.56764 -14.6086,-10.39727 -17.1575,-15.99242 22.1526,-11.16174 50.8702,-24.86346 75.3954,-25.13832 z"
         id="path225"
         sodipodi:nodetypes="ssscscccs" />
      <path
         d="m -9168.0907,-386.29092 -73.7996,37.95929 1.8318,-8.41302 12.041,-55.33794 52.0198,22.38782 z m 0,0"
         fill="#9af4e7"
         id="path227"
         style="fill:#ff7f2a;stroke-width:0.266529" />
      <path
         d="m -9168.0907,-386.29092 -24.1314,22.04959 -49.6682,15.9097 1.8318,-8.41302 64.0608,-32.95012 z m 0,0"
         fill="#80e0d0"
         id="path229"
         style="fill:#d45500;stroke-width:0.266529" />
      <path
         d="m -9228.019,-412.08278 8.6612,52.16046 -22.5318,11.58933 z m 0,0"
         fill="#80e0d0"
         id="path231"
         style="fill:#d45500;stroke-width:0.266529" />
      <path
         d="m -9135.4991,-362.95371 -105.8277,54.4332 -35.8918,-21.64076 144.9887,-74.57586 z m 0,0"
         fill="#9af4e7"
         id="path233"
         style="fill:#ff7f2a;stroke-width:0.266529" />
      <path
         d="m -9277.2186,-330.16127 12.147,-6.24786 57.586,10.48218 -33.8412,17.40644 z m 0,0"
         fill="#80e0d0"
         id="path235"
         style="fill:#d45500;stroke-width:0.266529" />
      <path
         id="path237"
         style="fill:#333333;stroke-width:0.264583"
         d="m -9125.6957,-371.51098 c -9.077,-0.10171 -17.3029,1.51921 -23.9278,5.58674 -15.2316,9.35165 -27.014,18.65309 -37.8161,26.74876 -16.3388,12.24468 -30.4311,21.7251 -50.7847,24.40471 -22.3337,2.94031 -55.6112,-6.55406 -81.8838,-16.08377 -0.4402,0.20536 0.5185,-0.0504 0,0 50.6698,102.5373 131.2265,198.42561 131.2265,198.42561 0,0 84.6935,-101.91642 134.1917,-210.5742 -22.1527,-11.16174 -46.4807,-28.23299 -71.0058,-28.50785 z"
         sodipodi:nodetypes="ssssccccs" />
    </g>
    <text
       xml:space="preserve"
       style="font-style:normal;font-variant:normal;font-weight:bold;font-stretch:normal;font-size:18.5178px;line-height:1.25;font-family:'DejaVu Sans';-inkscape-font-specification:'DejaVu Sans, Bold';font-variant-ligatures:normal;font-variant-caps:normal;font-variant-numeric:normal;font-variant-east-asian:normal;fill:#000000;stroke-width:1.41408"
       x="-556.40948"
       y="-8.7417192"
       id="text243"><tspan
         sodipodi:role="line"
         id="tspan241"
         x="-556.40948"
         y="-8.7417192"
         style="font-style:normal;font-variant:normal;font-weight:bold;font-stretch:normal;font-size:18.5178px;font-family:'DejaVu Sans';-inkscape-font-specification:'DejaVu Sans, Bold';font-variant-ligatures:normal;font-variant-caps:normal;font-variant-numeric:normal;font-variant-east-asian:normal;fill:#000000;stroke-width:1.41408">SURF</tspan></text>
  </g>
</svg>
