<?xml version="1.0" encoding="UTF-8" standalone="no"?>
<svg
   xmlns:dc="http://purl.org/dc/elements/1.1/"
   xmlns:cc="http://creativecommons.org/ns#"
   xmlns:rdf="http://www.w3.org/1999/02/22-rdf-syntax-ns#"
   xmlns:svg="http://www.w3.org/2000/svg"
   xmlns="http://www.w3.org/2000/svg"
   xmlns:sodipodi="http://sodipodi.sourceforge.net/DTD/sodipodi-0.dtd"
   xmlns:inkscape="http://www.inkscape.org/namespaces/inkscape"
   width="303.57889"
   height="142.06882"
   viewBox="0 0 80.321916 37.58904"
   version="1.1"
   id="svg251"
   inkscape:version="1.0.1 (3bc2e813f5, 2020-09-07)"
   sodipodi:docname="surfnew.svg">
  <defs
     id="defs245" />
  <sodipodi:namedview
     id="base"
     pagecolor="#ffffff"
     bordercolor="#666666"
     borderopacity="1.0"
     inkscape:pageopacity="0.0"
     inkscape:pageshadow="2"
     inkscape:zoom="0.35"
     inkscape:cx="277.852"
     inkscape:cy="226.10295"
     inkscape:document-units="px"
     inkscape:current-layer="layer1"
     inkscape:document-rotation="0"
     showgrid="false"
     inkscape:window-width="1366"
     inkscape:window-height="710"
     inkscape:window-x="0"
     inkscape:window-y="0"
     inkscape:window-maximized="1"
     units="px"
     fit-margin-top="0"
     fit-margin-left="0"
     fit-margin-right="0"
     fit-margin-bottom="0"
     inkscape:object-nodes="false" />
  <metadata
     id="metadata248">
    <rdf:RDF>
      <cc:Work
         rdf:about="">
        <dc:format>image/svg+xml</dc:format>
        <dc:type
           rdf:resource="http://purl.org/dc/dcmitype/StillImage" />
        <dc:title />
      </cc:Work>
    </rdf:RDF>
  </metadata>
  <g
     inkscape:label="Layer 1"
     inkscape:groupmode="layer"
     id="layer1"
     transform="translate(582.99542,37.134181)">
    <text
       xml:space="preserve"
       style="font-style:normal;font-variant:normal;font-weight:bold;font-stretch:normal;font-size:18.5178px;line-height:1.25;font-family:'DejaVu Sans';-inkscape-font-specification:'DejaVu Sans, Bold';font-variant-ligatures:normal;font-variant-caps:normal;font-variant-numeric:normal;font-variant-east-asian:normal;fill:#000000;stroke-width:1.41408"
       x="-556.40948"
       y="-8.7417192"
       id="text243"><tspan
         sodipodi:role="line"
         id="tspan241"
         x="-556.40948"
         y="-8.7417192"
         style="font-style:normal;font-variant:normal;font-weight:bold;font-stretch:normal;font-size:18.5178px;font-family:'DejaVu Sans';-inkscape-font-specification:'DejaVu Sans, Bold';font-variant-ligatures:normal;font-variant-caps:normal;font-variant-numeric:normal;font-variant-east-asian:normal;fill:#000000;stroke-width:1.41408">SURF</tspan></text>
    <path
       id="path1281"
       style="opacity:1;fill:#000000;stroke-width:0.193306"
       d="m -561.94799,-13.517428 c -0.32675,-0.151634 -0.64559,-0.305983 -1.02629,-0.444723 -0.54695,-0.199331 -1.14452,-0.377718 -1.77711,-0.513765 -0.31628,-0.06803 -0.64135,-0.125543 -0.97336,-0.169638 -0.33201,-0.0441 -0.67074,-0.07478 -1.01468,-0.08954 -0.34393,-0.01476 -0.69308,-0.0135 -1.04514,0.0065 -0.35206,0.01998 -0.70707,0.05855 -1.06347,0.118665 -0.3564,0.06012 -0.71403,0.141642 -1.07096,0.247309 -0.35694,0.105665 -0.71315,0.235515 -1.06684,0.392134 -0.3265,0.144585 -0.68337,0.303889 -1.06631,0.464141 -0.38293,0.160251 -0.79191,0.321465 -1.22329,0.469536 -0.43138,0.14807 -0.8852,0.283012 -1.35703,0.391055 -0.47184,0.108043 -0.96193,0.18934 -1.46625,0.229508 -0.25216,0.02008 -0.50777,0.02989 -0.76656,0.02778 -0.25877,-0.0021 -0.52048,-0.01618 -0.78489,-0.04396 -0.26441,-0.02777 -0.53161,-0.06929 -0.80064,-0.126216 -0.22637,-0.0479 -0.45493,-0.113388 -0.68393,-0.1842 3.5919,6.6970179 8.39574,13.19770007 8.39574,13.19770007 0,0 5.1667,-7.01094967 8.79101,-13.97225807 z" />
    <path
       id="path1283"
       style="opacity:1;fill:#000000;stroke-width:0.193306"
       d="m -570.739,-37.134181 c -6.76912,2e-6 -12.25642,6.070514 -12.25642,13.55882 0,2.159233 1.03385,5.076113 2.48429,8.1272 0.14187,0.07478 0.28408,0.159296 0.42547,0.223845 0.27531,0.125674 0.54942,0.232454 0.82208,0.322014 0.27266,0.08956 0.54374,0.162064 0.81277,0.218991 0.26903,0.05693 0.53623,0.09844 0.80064,0.126216 0.26441,0.02777 0.52612,0.04186 0.78489,0.04396 0.25879,0.0021 0.5144,-0.008 0.76656,-0.02805 0.50432,-0.04017 0.99441,-0.121197 1.46625,-0.22924 0.36495,-0.08357 0.71878,-0.183506 1.06012,-0.292886 l -2.16698,-1.350084 10.0009,-3.19829 -0.76141,2.513809 c -0.0302,0.0981 -0.11162,0.183554 -0.21997,0.239488 0.33715,0.01508 0.66942,0.04494 0.99506,0.08819 0.33201,0.0441 0.65708,0.101613 0.97336,0.169639 0.63259,0.136048 1.23016,0.314434 1.77711,0.513764 0.54696,0.199331 1.04353,0.419531 1.47451,0.638903 0.16664,0.08482 0.27185,0.161814 0.418,0.24515 1.51283,-3.140379 2.59943,-6.15531 2.59943,-8.37262 0,-7.488309 -5.48757,-13.558822 -12.25666,-13.558819 z m 2.5e-4,6.681915 a 1.8915055,1.9757975 0 0 1 1.89148,1.976042 1.8915055,1.9757975 0 0 1 -1.89148,1.975771 1.8915055,1.9757975 0 0 1 -1.89174,-1.975771 1.8915055,1.9757975 0 0 1 1.89174,-1.976042 z m -2.23487,7.119359 c 3.57565,-0.01267 5.28083,2.549837 5.77204,3.456387 l -5.44388,1.740868 -1.89614,-4.62227 0.002,-7.82e-4 c -0.0402,-0.09821 -0.058,-0.415137 0.39528,-0.483021 0.41067,-0.06111 0.80073,-0.08985 1.17062,-0.09116 z" />
  </g>
</svg>
