{
  "accessors": [
    {
      "bufferView": 1,
      "componentType": 5126,
      "count": 65532,
      "max": [
        38.442787170410156,
        21.582077026367188,
        40.098011016845703
      ],
      "min": [
        -40.341510772705078,
        -40.473331451416016,
        -39.5543212890625
      ],
      "type": "VEC3"
    },
    {
      "bufferView": 1,
      "byteOffset": 786384,
      "componentType": 5126,
      "count": 65532,
      "max": [
        0.99979609251022339,
        0.99987679719924927,
        0.99994802474975586
      ],
      "min": [
        -0.99979609251022339,
        -0.99987679719924927,
        -0.99994802474975586
      ],
      "type": "VEC3"
    },
    {
      "bufferView": 2,
      "componentType": 5126,
      "count": 65532,
      "max": [
        0.99979609251022339,
        0.0054817777127027512,
        0.99994808435440063,
        1
      ],
      "min": [
        -0.99979609251022339,
        -0.99987685680389404,
        -0.99994808435440063,
        1
      ],
      "type": "VEC4"
    },
    {
      "bufferView": 0,
      "componentType": 5125,
      "count": 98298,
      "max": [
        65531
      ],
      "min": [
        0
      ],
      "type": "SCALAR"
    },
    {
      "bufferView": 1,
      "byteOffset": 1572768,
      "componentType": 5126,
      "count": 52620,
      "max": [
        26.886634826660156,
        40.159908294677734,
        34.784542083740234
      ],
      "min": [
        -34.116676330566406,
        -40.497783660888672,
        -34.116649627685547
      ],
      "type": "VEC3"
    },
    {
      "bufferView": 1,
      "byteOffset": 2204208,
      "componentType": 5126,
      "count": 52620,
      "max": [
        0.99981093406677246,
        0.99987751245498657,
        0.9999232292175293
      ],
      "min": [
        -0.99981093406677246,
        -0.99987751245498657,
        -0.9999232292175293
      ],
      "type": "VEC3"
    },
    {
      "bufferView": 2,
      "byteOffset": 1048512,
      "componentType": 5126,
      "count": 52620,
      "max": [
        0.99981093406677246,
        0.004646629560738802,
        0.99992328882217407,
        1
      ],
      "min": [
        -0.99981093406677246,
        -0.85270142555236816,
        -0.99992328882217407,
        1
      ],
      "type": "VEC4"
    },
    {
      "bufferView": 0,
      "byteOffset": 393192,
      "componentType": 5125,
      "count": 78930,
      "max": [
        52619
      ],
      "min": [
        0
      ],
      "type": "SCALAR"
    }
  ],
  "asset": {
    "extras": {
      "author": "mendessingrid (https://sketchfab.com/mendessingrid)",
      "license": "CC-BY-4.0 (http://creativecommons.org/licenses/by/4.0/)",
      "source": "https://sketchfab.com/models/2d2e56a096a443e18074674deb076350",
      "title": "World Earth Planet"
    },
    "generator": "Sketchfab-3.18.6",
    "version": "2.0"
  },
  "bufferViews": [
    {
      "buffer": 0,
      "byteLength": 708912,
      "byteOffset": 0,
      "name": "floatBufferViews",
      "target": 34963
    },
    {
      "buffer": 0,
      "byteLength": 2835648,
      "byteOffset": 708912,
      "byteStride": 12,
      "name": "floatBufferViews",
      "target": 34962
    },
    {
      "buffer": 0,
      "byteLength": 1890432,
      "byteOffset": 3544560,
      "byteStride": 16,
      "name": "floatBufferViews",
      "target": 34962
    }
  ],
  "buffers": [
    {
      "byteLength": 5434992,
      "uri": "scene.bin"
    }
  ],
  "materials": [
    {
      "doubleSided": true,
      "emissiveFactor": [
        0,
        0,
        0
      ],
      "name": "lambert2",
      "pbrMetallicRoughness": {
        "baseColorFactor": [
          0.015599999999999999,
          0.60729999999999995,
          0.55720000000000003,
          1
        ],
        "metallicFactor": 0,
        "roughnessFactor": 0.59999999999999998
      }
    }
  ],
  "meshes": [
    {
      "name": "MASH1_ReproMesh_lambert2_0",
      "primitives": [
        {
          "attributes": {
            "NORMAL": 1,
            "POSITION": 0,
            "TANGENT": 2
          },
          "indices": 3,
          "material": 0,
          "mode": 4
        }
      ]
    },
    {
      "name": "MASH1_ReproMesh_lambert2_0",
      "primitives": [
        {
          "attributes": {
            "NORMAL": 5,
            "POSITION": 4,
            "TANGENT": 6
          },
          "indices": 7,
          "material": 0,
          "mode": 4
        }
      ]
    }
  ],
  "nodes": [
    {
      "children": [
        1
      ],
      "name": "RootNode (gltf orientation matrix)",
      "rotation": [
        -0.70710678118654746,
        -0,
        -0,
        0.70710678118654757
      ]
    },
    {
      "children": [
        2
      ],
      "name": "RootNode (model correction matrix)"
    },
    {
      "children": [
        3
      ],
      "matrix": [
        1,
        0,
        0,
        0,
        0,
        0,
        1,
        0,
        0,
        -1,
        0,
        0,
        0,
        0,
        0,
        1
      ],
      "name": "e01dfc67e8e84447bf1387e7391b29be.fbx"
    },
    {
      "children": [
        4
      ],
      "name": "RootNode"
    },
    {
      "children": [
        5,
        6
      ],
      "name": "MASH1_ReproMesh"
    },
    {
      "mesh": 0,
      "name": "MASH1_ReproMesh_lambert2_0"
    },
    {
      "mesh": 1,
      "name": "MASH1_ReproMesh_lambert2_0"
    }
  ],
  "scene": 0,
  "scenes": [
    {
      "name": "OSG_Scene",
      "nodes": [
        0
      ]
    }
  ]
}

